<?xml version="1.0" encoding="UTF-8" standalone="no"?><!DOCTYPE svg PUBLIC "-//W3C//DTD SVG 1.1//EN" "http://www.w3.org/Graphics/SVG/1.1/DTD/svg11.dtd"><svg width="100%" height="100%" viewBox="0 0 100 100" version="1.1" xmlns="http://www.w3.org/2000/svg" xmlns:xlink="http://www.w3.org/1999/xlink" xml:space="preserve" xmlns:serif="http://www.serif.com/" style="fill-rule:evenodd;clip-rule:evenodd;stroke-linejoin:round;"><g><path d="M10.417,50c-0,-18.66 -0,-27.99 5.797,-33.787c5.796,-5.796 15.126,-5.796 33.786,-5.796c18.66,-0 27.99,-0 33.787,5.796c5.796,5.797 5.796,15.127 5.796,33.787c0,18.66 0,27.99 -5.796,33.787c-5.797,5.796 -15.127,5.796 -33.787,5.796c-18.66,0 -27.99,0 -33.787,-5.796c-5.796,-5.797 -5.796,-15.127 -5.796,-33.787Z" style="fill:none;fill-rule:nonzero;stroke:#bd93f9;stroke-width:6.25px;"/><g><path d="M27.083,66.667l0,-16.667m0,0l0,-11.979c0,-0.484 0,-0.726 0.02,-0.929c0.195,-1.979 1.76,-3.544 3.739,-3.739c0.203,-0.02 0.445,-0.02 0.929,-0.02l5.729,0c4.602,0 8.333,3.731 8.333,8.334c0,4.602 -3.73,8.333 -8.333,8.333l-10.417,0Z" style="fill:none;fill-rule:nonzero;stroke:#bd93f9;stroke-width:6.25px;stroke-linecap:round;"/><path d="M72.774,46.76c-0.723,-2.899 -4.115,-5.093 -8.191,-5.093c-4.602,-0 -8.333,2.798 -8.333,6.25c0,3.451 3.731,6.25 8.333,6.25c4.603,-0 8.334,2.798 8.334,6.25c-0,3.451 -3.731,6.25 -8.334,6.25c-4.09,-0 -7.492,-2.21 -8.198,-5.125" style="fill:none;fill-rule:nonzero;stroke:#bd93f9;stroke-width:6.25px;stroke-linecap:round;stroke-linejoin:miter;"/></g></g></svg>