<?xml version="1.0" encoding="UTF-8" standalone="no"?><!DOCTYPE svg PUBLIC "-//W3C//DTD SVG 1.1//EN" "http://www.w3.org/Graphics/SVG/1.1/DTD/svg11.dtd"><svg width="100%" height="100%" viewBox="0 0 100 100" version="1.1" xmlns="http://www.w3.org/2000/svg" xmlns:xlink="http://www.w3.org/1999/xlink" xml:space="preserve" xmlns:serif="http://www.serif.com/" style="fill-rule:evenodd;clip-rule:evenodd;stroke-linejoin:round;"><g><path d="M10.417,50c-0,-18.66 -0,-27.99 5.797,-33.787c5.796,-5.796 15.126,-5.796 33.786,-5.796c18.66,-0 27.99,-0 33.787,5.796c5.796,5.797 5.796,15.127 5.796,33.787c0,18.66 0,27.99 -5.796,33.787c-5.797,5.796 -15.127,5.796 -33.787,5.796c-18.66,0 -27.99,0 -33.787,-5.796c-5.796,-5.797 -5.796,-15.127 -5.796,-33.787Z" style="fill:none;fill-rule:nonzero;stroke:#bd93f9;stroke-width:6.25px;"/><g><path d="M54.167,66.667l-3.609,-11.667m-21.391,11.667l3.609,-11.667m-0,0l3.017,-9.755c2.457,-7.941 3.685,-11.912 5.874,-11.912c2.188,0 3.417,3.971 5.873,11.912l3.018,9.755m-17.782,0l17.782,0" style="fill:none;fill-rule:nonzero;stroke:#bd93f9;stroke-width:6.25px;stroke-linecap:round;"/><path d="M66.667,66.667l-0,-20.834" style="fill:none;fill-rule:nonzero;stroke:#bd93f9;stroke-width:6.25px;stroke-linecap:round;"/><path d="M66.667,35.417l-0,-2.084" style="fill:none;fill-rule:nonzero;stroke:#bd93f9;stroke-width:6.25px;stroke-linecap:round;"/></g></g></svg>