<?xml version="1.0" encoding="UTF-8" standalone="no"?><!DOCTYPE svg PUBLIC "-//W3C//DTD SVG 1.1//EN" "http://www.w3.org/Graphics/SVG/1.1/DTD/svg11.dtd"><svg width="100%" height="100%" viewBox="0 0 100 100" version="1.1" xmlns="http://www.w3.org/2000/svg" xmlns:xlink="http://www.w3.org/1999/xlink" xml:space="preserve" xmlns:serif="http://www.serif.com/" style="fill-rule:evenodd;clip-rule:evenodd;stroke-linecap:round;stroke-linejoin:round;"><g><g><path d="M16.667,64.583c-4.603,0 -8.334,-3.73 -8.334,-8.333c0,-4.602 3.731,-8.333 8.334,-8.333" style="fill:none;fill-rule:nonzero;stroke:#bd93f9;stroke-width:6.25px;"/><path d="M83.333,64.583c4.603,0 8.334,-3.73 8.334,-8.333c-0,-4.602 -3.731,-8.333 -8.334,-8.333" style="fill:none;fill-rule:nonzero;stroke:#bd93f9;stroke-width:6.25px;"/><path d="M29.167,29.167l-0,-12.5" style="fill:none;fill-rule:nonzero;stroke:#bd93f9;stroke-width:6.25px;stroke-linecap:butt;"/><path d="M70.833,29.167l0,-12.5" style="fill:none;fill-rule:nonzero;stroke:#bd93f9;stroke-width:6.25px;stroke-linecap:butt;"/><circle cx="29.167" cy="12.5" r="4.167" style="fill:none;stroke:#bd93f9;stroke-width:6.25px;stroke-linecap:butt;"/><circle cx="70.833" cy="12.5" r="4.167" style="fill:none;stroke:#bd93f9;stroke-width:6.25px;stroke-linecap:butt;"/><path d="M56.25,29.167l-12.5,-0c-11.785,-0 -17.678,-0 -21.339,3.787c-3.661,3.788 -3.661,9.883 -3.661,22.075c0,12.191 0,18.287 3.661,22.074c3.661,3.788 9.554,3.788 21.339,3.788l4.272,-0c3.298,-0 4.462,0.681 6.735,3.156c2.514,2.738 6.406,6.391 9.927,7.241c5.005,1.21 5.566,-0.463 4.449,-5.233c-0.318,-1.359 -1.111,-3.532 -0.275,-4.797c0.469,-0.71 1.25,-0.884 2.812,-1.233c2.464,-0.55 4.496,-1.45 5.919,-2.922c3.661,-3.787 3.661,-9.883 3.661,-22.074c0,-12.192 0,-18.287 -3.661,-22.075c-3.661,-3.787 -9.554,-3.787 -21.339,-3.787Z" style="fill:none;fill-rule:nonzero;stroke:#bd93f9;stroke-width:6.25px;stroke-linecap:butt;"/><path d="M39.583,62.5c2.376,2.53 6.157,4.167 10.417,4.167c4.26,-0 8.041,-1.637 10.417,-4.167" style="fill:none;fill-rule:nonzero;stroke:#bd93f9;stroke-width:6.25px;"/></g><path d="M37.537,45.833l-0.037,0" style="fill:none;fill-rule:nonzero;stroke:#bd93f9;stroke-width:8.33px;"/><path d="M62.538,45.833l-0.038,0" style="fill:none;fill-rule:nonzero;stroke:#bd93f9;stroke-width:8.33px;"/></g></svg>