<?xml version="1.0" encoding="UTF-8" standalone="no"?><!DOCTYPE svg PUBLIC "-//W3C//DTD SVG 1.1//EN" "http://www.w3.org/Graphics/SVG/1.1/DTD/svg11.dtd"><svg width="100%" height="100%" viewBox="0 0 100 100" version="1.1" xmlns="http://www.w3.org/2000/svg" xmlns:xlink="http://www.w3.org/1999/xlink" xml:space="preserve" xmlns:serif="http://www.serif.com/" style="fill-rule:evenodd;clip-rule:evenodd;stroke-linecap:round;stroke-linejoin:round;"><path d="M50,8.333c-23.012,0 -41.667,18.655 -41.667,41.667c0,23.012 18.655,41.667 41.667,41.667c23.012,-0 41.667,-18.655 41.667,-41.667c-0,-23.012 -18.655,-41.667 -41.667,-41.667Z" style="fill:none;fill-rule:nonzero;stroke:#bd93f9;stroke-width:11.14px;"/><path d="M33.333,88.2l0,-29.867l16.667,-29.166l16.667,29.166l-0,29.867" style="fill:none;fill-rule:nonzero;stroke:#bd93f9;stroke-width:11.14px;"/><path d="M33.333,58.333c0,0 4.695,4.167 8.334,4.167c3.638,0 8.333,-4.167 8.333,-4.167c0,0 4.695,4.167 8.333,4.167c3.639,0 8.334,-4.167 8.334,-4.167" style="fill:none;fill-rule:nonzero;stroke:#bd93f9;stroke-width:11.14px;"/></svg>