<?xml version="1.0" encoding="UTF-8" standalone="no"?><!DOCTYPE svg PUBLIC "-//W3C//DTD SVG 1.1//EN" "http://www.w3.org/Graphics/SVG/1.1/DTD/svg11.dtd"><svg width="100%" height="100%" viewBox="0 0 100 100" version="1.1" xmlns="http://www.w3.org/2000/svg" xmlns:xlink="http://www.w3.org/1999/xlink" xml:space="preserve" xmlns:serif="http://www.serif.com/" style="fill-rule:evenodd;clip-rule:evenodd;stroke-linejoin:round;"><g><circle cx="62.5" cy="50" r="12.5" style="fill:none;stroke:#ff79c6;stroke-width:6.25px;"/><path d="M37.5,87.5c6.904,0 12.5,-5.596 12.5,-12.5l0,-12.5l-12.5,0c-6.904,0 -12.5,5.596 -12.5,12.5c0,6.904 5.596,12.5 12.5,12.5Z" style="fill:none;fill-rule:nonzero;stroke:#ff79c6;stroke-width:6.25px;"/><g><path d="M50,37.5l0,25l-12.5,0c-6.904,0 -12.5,-5.596 -12.5,-12.5c0,-6.904 5.596,-12.5 12.5,-12.5l12.5,0Z" style="fill:none;fill-rule:nonzero;stroke:#ff79c6;stroke-width:6.25px;stroke-linecap:round;"/><path d="M50,12.5l0,25l-12.5,0c-6.904,0 -12.5,-5.596 -12.5,-12.5c0,-6.904 5.596,-12.5 12.5,-12.5l12.5,0Z" style="fill:none;fill-rule:nonzero;stroke:#ff79c6;stroke-width:6.25px;stroke-linecap:round;"/><path d="M50,12.5l0,25l12.5,0c6.904,0 12.5,-5.596 12.5,-12.5c0,-6.904 -5.596,-12.5 -12.5,-12.5l-12.5,0Z" style="fill:none;fill-rule:nonzero;stroke:#ff79c6;stroke-width:6.25px;stroke-linecap:round;"/></g></g></svg>