<?xml version="1.0" encoding="UTF-8" standalone="no"?><!DOCTYPE svg PUBLIC "-//W3C//DTD SVG 1.1//EN" "http://www.w3.org/Graphics/SVG/1.1/DTD/svg11.dtd"><svg width="100%" height="100%" viewBox="0 0 100 100" version="1.1" xmlns="http://www.w3.org/2000/svg" xmlns:xlink="http://www.w3.org/1999/xlink" xml:space="preserve" xmlns:serif="http://www.serif.com/" style="fill-rule:evenodd;clip-rule:evenodd;"><g><path d="M10.417,50c-0,-18.66 -0,-27.99 5.797,-33.787c5.796,-5.796 15.126,-5.796 33.786,-5.796c18.66,-0 27.99,-0 33.787,5.796c5.796,5.797 5.796,15.127 5.796,33.787c0,18.66 0,27.99 -5.796,33.787c-5.797,5.796 -15.127,5.796 -33.787,5.796c-18.66,0 -27.99,0 -33.787,-5.796c-5.796,-5.797 -5.796,-15.127 -5.796,-33.787Z" style="fill:none;fill-rule:nonzero;stroke:#bd93f9;stroke-width:6.25px;"/><g><path d="M48.885,50l0,16.667c0,4.602 -3.731,8.333 -8.333,8.333c-3.085,0 -5.778,-1.676 -7.219,-4.167" style="fill:none;fill-rule:nonzero;stroke:#bd93f9;stroke-width:6.25px;stroke-linecap:round;"/><path d="M76.945,54.167c-1.441,-2.491 -4.134,-4.167 -7.218,-4.167l-2.084,0c-3.452,0 -6.25,2.798 -6.25,6.25c0,3.452 2.798,6.25 6.25,6.25l4.167,0c3.452,0 6.25,2.798 6.25,6.25c0,3.452 -2.798,6.25 -6.25,6.25l-2.083,0c-3.085,0 -5.778,-1.676 -7.219,-4.167" style="fill:none;fill-rule:nonzero;stroke:#bd93f9;stroke-width:6.25px;stroke-linecap:round;"/></g></g></svg>