<?xml version="1.0" encoding="UTF-8" standalone="no"?><!DOCTYPE svg PUBLIC "-//W3C//DTD SVG 1.1//EN" "http://www.w3.org/Graphics/SVG/1.1/DTD/svg11.dtd"><svg width="100%" height="100%" viewBox="0 0 492 492" version="1.1" xmlns="http://www.w3.org/2000/svg" xmlns:xlink="http://www.w3.org/1999/xlink" xml:space="preserve" xmlns:serif="http://www.serif.com/" style="fill-rule:evenodd;clip-rule:evenodd;stroke-linejoin:round;stroke-miterlimit:2;"><rect id="Artboard1" x="0" y="0" width="491.55" height="491.55" style="fill:none;"/><clipPath id="_clip1"><rect x="0" y="0" width="491.55" height="491.55"/></clipPath><g clip-path="url(#_clip1)"><path d="M491.55,53.508l0,384.534c0,29.532 -23.976,53.508 -53.508,53.508l-384.534,0c-29.532,0 -53.508,-23.976 -53.508,-53.508l-0,-384.534c-0,-29.532 23.976,-53.508 53.508,-53.508l384.534,0c29.532,0 53.508,23.976 53.508,53.508Z" style="fill:#f8f8f2;"/><g id="g1"></g><path id="path1" d="M50.123,441.427l-0,-74.03l74.03,-0l0,74.03l-74.03,0Zm63.455,-10.575l-0,-52.879l-52.879,-0l-0,52.879l52.879,-0Zm-42.304,-10.576l0,-31.728l31.728,0l-0,31.728l-31.728,-0Zm63.455,15.864c0,-4.407 1.763,-5.288 10.576,-5.288c8.813,-0 10.576,-0.882 10.576,-5.288c-0,-4.407 -1.763,-5.288 -10.576,-5.288l-10.576,-0l0,-21.152c0,-19.389 0.441,-21.151 5.288,-21.151c3.525,-0 5.288,-1.763 5.288,-5.288c-0,-3.526 -1.763,-5.288 -5.288,-5.288c-3.525,-0 -5.288,-1.763 -5.288,-5.288c0,-4.407 1.763,-5.288 10.576,-5.288c8.813,0 10.576,0.881 10.576,5.288c-0,3.525 1.762,5.288 5.288,5.288c3.525,-0 5.288,-1.763 5.288,-5.288c-0,-3.525 1.762,-5.288 5.287,-5.288c3.526,0 5.288,-1.763 5.288,-5.288c0,-3.525 -1.762,-5.288 -5.288,-5.288c-4.406,0 -5.287,-1.762 -5.287,-10.576c-0,-8.813 0.881,-10.575 5.287,-10.575c3.526,-0 5.288,1.762 5.288,5.287c0,3.526 1.763,5.288 5.288,5.288c4.407,0 5.288,-1.762 5.288,-10.575c0,-8.814 0.882,-10.576 5.288,-10.576c4.407,-0 5.288,-1.763 5.288,-10.576c-0,-8.813 -0.881,-10.576 -5.288,-10.576c-3.525,0 -5.288,1.763 -5.288,5.288c0,3.525 -1.762,5.288 -5.288,5.288c-3.525,-0 -5.288,1.763 -5.288,5.288c0,3.525 -1.762,5.288 -5.288,5.288c-3.525,-0 -5.287,-1.763 -5.287,-5.288c-0,-3.525 1.762,-5.288 5.287,-5.288c3.526,-0 5.288,-1.763 5.288,-5.288c0,-3.525 -1.762,-5.288 -5.288,-5.288c-3.525,0 -5.287,-1.762 -5.287,-5.288c-0,-3.525 -1.763,-5.288 -5.288,-5.288c-3.526,0 -5.288,1.763 -5.288,5.288c-0,3.526 -1.763,5.288 -5.288,5.288c-3.525,0 -5.288,1.763 -5.288,5.288c-0,3.525 -1.763,5.288 -5.288,5.288c-4.7,-0 -5.288,1.763 -5.288,15.864c0,14.101 0.588,15.863 5.288,15.863c3.525,0 5.288,1.763 5.288,5.288c-0,4.407 -1.763,5.288 -10.576,5.288c-8.813,0 -10.576,0.882 -10.576,5.288c0,4.7 -1.762,5.288 -15.863,5.288c-14.101,0 -15.864,-0.588 -15.864,-5.288c-0,-3.525 -1.763,-5.288 -5.288,-5.288c-3.525,0 -5.288,1.763 -5.288,5.288c0,3.525 -1.762,5.288 -5.288,5.288c-3.525,0 -5.288,-1.763 -5.288,-5.288c0,-3.525 1.763,-5.288 5.288,-5.288c3.526,0 5.288,-1.762 5.288,-5.288c0,-3.525 1.763,-5.288 5.288,-5.288c3.525,0 5.288,-1.762 5.288,-5.288c-0,-4.406 -1.763,-5.287 -10.576,-5.287l-10.576,-0l0,-10.576c0,-8.813 -0.881,-10.576 -5.288,-10.576c-4.935,-0 -5.287,1.763 -5.287,26.439c-0,24.677 -0.353,26.44 -5.288,26.44c-4.936,0 -5.288,-1.763 -5.288,-26.44c-0,-24.676 0.353,-26.439 5.288,-26.439c4.406,-0 5.288,-1.763 5.288,-10.576c-0,-8.813 0.881,-10.576 5.287,-10.576c4.407,0 5.288,1.763 5.288,10.576c0,8.813 0.882,10.576 5.288,10.576c3.526,-0 5.288,1.763 5.288,5.288c0,3.525 1.763,5.288 5.288,5.288c3.525,-0 5.288,1.762 5.288,5.288c-0,4.7 1.763,5.288 15.864,5.288c14.101,-0 15.863,-0.588 15.863,-5.288c0,-4.407 -1.762,-5.288 -10.575,-5.288c-8.814,-0 -10.576,-0.882 -10.576,-5.288c-0,-3.525 -1.763,-5.288 -5.288,-5.288c-3.525,-0 -5.288,-1.763 -5.288,-5.288c-0,-3.525 -1.763,-5.288 -5.288,-5.288c-3.525,0 -5.288,-1.762 -5.288,-5.288c0,-4.406 1.763,-5.288 10.576,-5.288l10.576,0l-0,21.152l15.863,-0c14.101,-0 15.864,-0.588 15.864,-5.288c0,-3.525 1.763,-5.288 5.288,-5.288c3.525,0 5.288,-1.762 5.288,-5.288c-0,-4.406 -1.763,-5.288 -10.576,-5.288c-8.813,0 -10.576,0.882 -10.576,5.288c0,3.526 -1.762,5.288 -5.288,5.288c-3.525,0 -5.287,-1.762 -5.287,-5.288c-0,-3.525 1.762,-5.288 5.287,-5.288c3.526,0 5.288,-1.762 5.288,-5.288c0,-4.406 -1.762,-5.287 -10.575,-5.287c-8.814,-0 -10.576,-0.882 -10.576,-5.288c-0,-4.701 -1.763,-5.288 -15.864,-5.288c-14.101,-0 -15.864,-0.588 -15.864,-5.288c0,-3.525 -1.762,-5.288 -5.288,-5.288c-3.525,-0 -5.287,-1.763 -5.287,-5.288c-0,-3.525 -1.763,-5.288 -5.288,-5.288c-3.526,0 -5.288,-1.763 -5.288,-5.288c-0,-3.525 1.762,-5.288 5.288,-5.288c3.525,0 5.288,-1.762 5.288,-5.288c-0,-3.525 -1.763,-5.287 -5.288,-5.287c-4.701,-0 -5.288,-1.763 -5.288,-15.864c-0,-14.101 0.587,-15.864 5.288,-15.864c3.525,0 5.288,-1.762 5.288,-5.288c-0,-3.525 1.762,-5.288 5.287,-5.288c3.526,0 5.288,-1.762 5.288,-5.288c0,-3.525 -1.762,-5.287 -5.288,-5.287c-3.525,-0 -5.287,-1.763 -5.287,-5.288c-0,-3.526 -1.763,-5.288 -5.288,-5.288c-4.407,-0 -5.288,-1.763 -5.288,-10.576c-0,-8.813 0.881,-10.576 5.288,-10.576c4.406,0 5.288,1.763 5.288,10.576c-0,8.813 0.881,10.576 5.287,10.576c3.526,-0 5.288,1.762 5.288,5.288c0,3.525 1.763,5.288 5.288,5.288c4.407,-0 5.288,-1.763 5.288,-10.576c0,-8.813 -0.881,-10.576 -5.288,-10.576c-3.525,-0 -5.288,-1.763 -5.288,-5.288c0,-4.935 1.763,-5.288 26.44,-5.288c24.677,0 26.439,0.353 26.439,5.288c0,3.525 -1.762,5.288 -5.288,5.288c-3.525,-0 -5.287,1.763 -5.287,5.288c-0,3.525 1.762,5.288 5.287,5.288c3.526,-0 5.288,1.762 5.288,5.288c0,3.525 1.763,5.288 5.288,5.288c3.525,-0 5.288,1.762 5.288,5.287c0,3.526 -1.763,5.288 -5.288,5.288c-3.525,0 -5.288,1.763 -5.288,5.288c0,3.526 -1.762,5.288 -5.288,5.288c-3.525,0 -5.287,1.763 -5.287,5.288c-0,3.525 1.762,5.288 5.287,5.288c3.526,-0 5.288,1.763 5.288,5.288c0,3.525 1.763,5.288 5.288,5.288c3.525,-0 5.288,-1.763 5.288,-5.288c0,-3.525 1.763,-5.288 5.288,-5.288c3.525,-0 5.288,-1.763 5.288,-5.288c-0,-4.7 1.763,-5.288 15.864,-5.288c14.101,0 15.863,0.588 15.863,5.288c0,4.407 1.763,5.288 10.576,5.288c8.813,-0 10.576,0.881 10.576,5.288c-0,3.525 1.763,5.288 5.288,5.288c3.525,-0 5.288,-1.763 5.288,-5.288c-0,-3.525 1.762,-5.288 5.288,-5.288c3.525,-0 5.288,-1.763 5.288,-5.288c-0,-4.407 -1.763,-5.288 -10.576,-5.288c-8.813,0 -10.576,-0.881 -10.576,-5.288c-0,-3.525 1.763,-5.288 5.288,-5.288c3.525,0 5.288,-1.762 5.288,-5.288c-0,-4.7 -1.763,-5.287 -15.864,-5.287c-14.101,-0 -15.864,-0.588 -15.864,-5.288c0,-3.526 1.763,-5.288 5.288,-5.288c3.526,-0 5.288,-1.763 5.288,-5.288c0,-4.407 -1.762,-5.288 -10.576,-5.288c-8.813,-0 -10.575,-0.881 -10.575,-5.288c-0,-3.525 -1.763,-5.288 -5.288,-5.288c-3.526,0 -5.288,1.763 -5.288,5.288c-0,3.525 -1.763,5.288 -5.288,5.288c-3.525,-0 -5.288,1.763 -5.288,5.288c-0,3.525 -1.763,5.288 -5.288,5.288c-3.525,-0 -5.288,-1.763 -5.288,-5.288c0,-3.525 1.763,-5.288 5.288,-5.288c3.525,-0 5.288,-1.763 5.288,-5.288c-0,-3.525 -1.763,-5.288 -5.288,-5.288c-4.994,0 -5.288,-1.762 -5.288,-31.727c0,-29.965 0.294,-31.728 5.288,-31.728c4.7,0 5.288,1.763 5.288,15.864c-0,14.101 0.588,15.864 5.288,15.864c3.525,-0 5.288,1.762 5.288,5.288c-0,3.525 1.762,5.288 5.288,5.288c3.525,-0 5.288,-1.763 5.288,-5.288c-0,-3.526 1.762,-5.288 5.287,-5.288c3.526,-0 5.288,-1.763 5.288,-5.288c0,-4.407 -1.762,-5.288 -10.575,-5.288l-10.576,-0l-0,-15.864c-0,-14.101 0.587,-15.864 5.288,-15.864c3.525,0 5.288,-1.762 5.288,-5.287c-0,-4.848 1.762,-5.288 21.151,-5.288c19.389,-0 21.152,0.44 21.152,5.288c-0,4.847 1.762,5.287 21.151,5.287c19.389,0 21.152,0.441 21.152,5.288c-0,4.701 -1.763,5.288 -15.864,5.288l-15.863,0l-0,10.576c-0,8.813 0.881,10.576 5.288,10.576c3.525,-0 5.287,-1.763 5.287,-5.288c0,-4.407 1.763,-5.288 10.576,-5.288c8.813,0 10.576,0.881 10.576,5.288c-0,3.525 1.763,5.288 5.288,5.288c3.525,-0 5.288,-1.763 5.288,-5.288c-0,-3.525 1.762,-5.288 5.288,-5.288c3.525,0 5.288,-1.763 5.288,-5.288c-0,-3.525 -1.763,-5.288 -5.288,-5.288c-3.526,0 -5.288,-1.762 -5.288,-5.288c-0,-3.525 1.762,-5.288 5.288,-5.288c3.525,0 5.288,-1.762 5.288,-5.287c-0,-3.526 1.762,-5.288 5.287,-5.288c3.526,-0 5.288,1.762 5.288,5.288c0,3.525 -1.762,5.287 -5.288,5.287c-3.525,0 -5.287,1.763 -5.287,5.288c-0,4.407 1.762,5.288 10.575,5.288c8.814,0 10.576,-0.881 10.576,-5.288c0,-4.406 1.763,-5.288 10.576,-5.288c8.813,0 10.576,-0.881 10.576,-5.287c-0,-3.526 1.762,-5.288 5.288,-5.288c3.525,-0 5.288,1.762 5.288,5.288c-0,4.7 1.762,5.287 15.863,5.287l15.864,0l-0,10.576c-0,8.813 -0.881,10.576 -5.288,10.576c-3.525,0 -5.288,1.763 -5.288,5.288c0,3.525 1.763,5.288 5.288,5.288c4.847,-0 5.288,1.763 5.288,21.152c-0,19.389 -0.441,21.151 -5.288,21.151c-4.407,0 -5.288,-1.762 -5.288,-10.576c0,-8.813 -0.881,-10.575 -5.288,-10.575c-3.525,-0 -5.288,1.762 -5.288,5.287c0,3.526 -1.762,5.288 -5.288,5.288c-3.525,0 -5.287,-1.762 -5.287,-5.288c-0,-3.525 -1.763,-5.287 -5.288,-5.287c-3.526,-0 -5.288,1.762 -5.288,5.287c-0,3.526 -1.763,5.288 -5.288,5.288c-4.407,0 -5.288,1.763 -5.288,10.576c0,8.813 0.881,10.576 5.288,10.576c3.525,-0 5.288,-1.763 5.288,-5.288c-0,-4.407 1.762,-5.288 10.576,-5.288l10.575,0l0,10.576c0,8.813 0.882,10.576 5.288,10.576c3.526,-0 5.288,-1.763 5.288,-5.288c0,-4.407 1.763,-5.288 10.576,-5.288c8.813,-0 10.576,-0.881 10.576,-5.288c-0,-4.935 1.762,-5.288 26.439,-5.288c24.677,0 26.44,0.353 26.44,5.288c-0,3.525 1.762,5.288 5.288,5.288c3.525,-0 5.288,1.763 5.288,5.288c-0,3.525 1.762,5.288 5.287,5.288c4.701,-0 5.288,1.762 5.288,15.863l0,15.864l-15.863,0c-14.101,0 -15.864,-0.587 -15.864,-5.288c0,-3.525 -1.763,-5.288 -5.288,-5.288c-3.525,0 -5.288,1.763 -5.288,5.288c0,3.526 -1.762,5.288 -5.288,5.288c-3.525,0 -5.288,1.763 -5.288,5.288c0,4.407 1.763,5.288 10.576,5.288c8.813,-0 10.576,0.881 10.576,5.288c0,3.525 -1.763,5.288 -5.288,5.288c-4.406,-0 -5.288,1.762 -5.288,10.576c0,8.813 -0.881,10.575 -5.288,10.575c-3.525,0 -5.288,1.763 -5.288,5.288c0,3.525 1.763,5.288 5.288,5.288c4.407,0 5.288,1.763 5.288,10.576l0,10.576l10.576,-0c8.813,-0 10.576,0.881 10.576,5.288c-0,3.525 -1.763,5.288 -5.288,5.288c-4.407,-0 -5.288,1.762 -5.288,10.575c0,8.814 -0.881,10.576 -5.288,10.576c-4.406,0 -5.288,1.763 -5.288,10.576c0,8.813 0.882,10.576 5.288,10.576c3.525,-0 5.288,-1.763 5.288,-5.288c0,-3.525 1.763,-5.288 5.288,-5.288c4.407,-0 5.288,-1.763 5.288,-10.576l-0,-10.576l10.576,0c8.813,0 10.575,0.882 10.575,5.288c0,3.526 -1.762,5.288 -5.288,5.288c-4.406,0 -5.287,1.763 -5.287,10.576l-0,10.576l-10.576,-0c-8.813,-0 -10.576,0.881 -10.576,5.288c0,4.7 1.763,5.288 15.864,5.288l15.863,-0l0,15.863c0,14.101 -0.587,15.864 -5.288,15.864c-3.525,0 -5.287,1.763 -5.287,5.288c-0,3.525 1.762,5.288 5.287,5.288c3.526,-0 5.288,1.762 5.288,5.288c0,3.525 -1.762,5.288 -5.288,5.288c-3.525,-0 -5.287,1.762 -5.287,5.287c-0,3.526 1.762,5.288 5.287,5.288c4.936,0 5.288,1.763 5.288,26.44l0,26.439l-52.879,0l0,-10.575c0,-8.814 0.882,-10.576 5.288,-10.576c3.526,-0 5.288,1.762 5.288,5.288c0,4.7 1.763,5.288 15.864,5.288c14.101,-0 15.864,-0.588 15.864,-5.288c-0,-4.407 -1.763,-5.288 -10.576,-5.288l-10.576,-0l0,-15.864c0,-14.101 -0.588,-15.864 -5.288,-15.864c-4.406,0 -5.288,1.763 -5.288,10.576c0,8.813 -0.881,10.576 -5.288,10.576c-3.525,-0 -5.288,-1.763 -5.288,-5.288c0,-3.525 -1.762,-5.288 -5.287,-5.288c-3.526,0 -5.288,1.763 -5.288,5.288c-0,3.525 -1.763,5.288 -5.288,5.288c-3.526,-0 -5.288,1.763 -5.288,5.288c-0,3.525 -1.763,5.288 -5.288,5.288c-3.525,-0 -5.288,1.762 -5.288,5.288c-0,4.406 1.763,5.288 10.576,5.288c8.813,-0 10.576,0.881 10.576,5.288c-0,4.406 -1.763,5.287 -10.576,5.287c-8.813,0 -10.576,-0.881 -10.576,-5.287c-0,-3.526 -1.763,-5.288 -5.288,-5.288c-3.525,-0 -5.288,-1.763 -5.288,-5.288c0,-4.701 -1.762,-5.288 -15.864,-5.288c-14.101,-0 -15.863,-0.588 -15.863,-5.288c-0,-4.407 -1.763,-5.288 -10.576,-5.288l-10.576,-0l0,21.152l21.152,-0c19.389,-0 21.151,0.44 21.151,5.288c0,4.847 -1.762,5.287 -21.151,5.287c-19.389,0 -21.152,-0.44 -21.152,-5.287c0,-4.407 -1.762,-5.288 -10.576,-5.288c-8.813,-0 -10.575,-0.882 -10.575,-5.288c-0,-3.526 -1.763,-5.288 -5.288,-5.288c-3.526,-0 -5.288,-1.763 -5.288,-5.288c-0,-3.525 1.762,-5.288 5.288,-5.288c3.525,-0 5.288,-1.763 5.288,-5.288c-0,-4.7 -1.763,-5.288 -15.864,-5.288c-14.101,0 -15.864,-0.587 -15.864,-5.288c0,-3.525 1.763,-5.288 5.288,-5.288c3.525,0 5.288,-1.762 5.288,-5.288c-0,-3.525 -1.763,-5.287 -5.288,-5.287c-3.525,-0 -5.288,-1.763 -5.288,-5.288c0,-3.526 1.763,-5.288 5.288,-5.288c4.847,-0 5.288,-1.763 5.288,-21.152c-0,-19.389 -0.441,-21.151 -5.288,-21.151c-3.525,-0 -5.288,-1.763 -5.288,-5.288c0,-3.526 1.763,-5.288 5.288,-5.288c3.525,-0 5.288,1.762 5.288,5.288c-0,3.525 1.763,5.288 5.288,5.288c3.525,-0 5.288,-1.763 5.288,-5.288c-0,-3.526 1.762,-5.288 5.288,-5.288c4.406,-0 5.288,-1.763 5.288,-10.576c-0,-8.813 -0.882,-10.576 -5.288,-10.576c-3.526,0 -5.288,-1.762 -5.288,-5.288c-0,-4.406 -1.763,-5.288 -10.576,-5.288c-8.813,0 -10.576,0.882 -10.576,5.288c0,3.526 1.763,5.288 5.288,5.288c3.525,0 5.288,1.763 5.288,5.288c-0,4.407 -1.763,5.288 -10.576,5.288c-8.813,-0 -10.576,0.881 -10.576,5.288c0,3.525 -1.762,5.288 -5.287,5.288c-3.526,-0 -5.288,1.762 -5.288,5.288c-0,3.525 1.762,5.288 5.288,5.288c3.525,-0 5.287,1.762 5.287,5.287c0,3.526 -1.762,5.288 -5.287,5.288c-4.407,0 -5.288,1.763 -5.288,10.576c-0,8.813 0.881,10.576 5.288,10.576c3.525,0 5.287,-1.763 5.287,-5.288c0,-3.525 1.763,-5.288 5.288,-5.288c3.526,0 5.288,1.763 5.288,5.288c0,3.525 -1.762,5.288 -5.288,5.288c-4.406,0 -5.288,1.763 -5.288,10.576c0,8.813 -0.881,10.576 -5.287,10.576c-4.407,-0 -5.288,1.762 -5.288,10.575c-0,8.814 0.881,10.576 5.288,10.576c3.525,0 5.287,1.763 5.287,5.288c0,4.407 -1.762,5.288 -10.575,5.288c-8.814,-0 -10.576,0.881 -10.576,5.288c-0,3.525 -1.763,5.288 -5.288,5.288c-3.525,-0 -5.288,1.762 -5.288,5.288c-0,3.525 1.763,5.288 5.288,5.288c3.525,-0 5.288,1.762 5.288,5.288c-0,3.525 -1.763,5.287 -5.288,5.287c-3.525,0 -5.288,-1.762 -5.288,-5.287c-0,-3.526 -1.763,-5.288 -5.288,-5.288c-3.525,-0 -5.288,1.762 -5.288,5.288c0,3.525 -1.762,5.287 -5.288,5.287c-3.525,0 -5.288,-1.762 -5.288,-5.287c0,-3.526 1.763,-5.288 5.288,-5.288c3.526,-0 5.288,-1.763 5.288,-5.288c0,-3.526 -1.762,-5.288 -5.288,-5.288c-4.847,-0 -5.288,-1.763 -5.288,-21.152l0,-21.151l-15.863,-0c-14.101,-0 -15.864,0.587 -15.864,5.287c-0,4.407 1.763,5.288 10.576,5.288c8.813,0 10.576,0.882 10.576,5.288c-0,4.407 -1.763,5.288 -10.576,5.288c-8.813,0 -10.576,0.882 -10.576,5.288c-0,3.525 1.763,5.288 5.288,5.288c3.525,-0 5.288,1.763 5.288,5.288c-0,3.525 1.762,5.288 5.288,5.288c4.406,-0 5.288,1.762 5.288,10.576l-0,10.575l-15.864,0c-14.101,0 -15.864,-0.587 -15.864,-5.287Zm63.455,-21.152c-0,-3.525 1.763,-5.288 5.288,-5.288c3.525,-0 5.288,-1.763 5.288,-5.288c-0,-3.525 -1.763,-5.288 -5.288,-5.288c-3.525,0 -5.288,1.763 -5.288,5.288c-0,3.525 -1.763,5.288 -5.288,5.288c-3.525,-0 -5.288,1.763 -5.288,5.288c0,3.525 1.763,5.288 5.288,5.288c3.525,-0 5.288,-1.763 5.288,-5.288Zm95.182,-10.576c0,-4.406 1.763,-5.288 10.576,-5.288c8.813,0 10.576,-0.881 10.576,-5.288c-0,-3.525 1.762,-5.288 5.288,-5.288c3.525,0 5.288,1.763 5.288,5.288c-0,3.526 1.762,5.288 5.287,5.288c3.526,0 5.288,1.763 5.288,5.288c0,4.407 1.763,5.288 10.576,5.288c8.813,-0 10.576,-0.881 10.576,-5.288c-0,-4.406 -1.763,-5.288 -10.576,-5.288c-8.813,0 -10.576,-0.881 -10.576,-5.288c0,-3.525 -1.762,-5.288 -5.288,-5.288c-3.525,0 -5.287,-1.762 -5.287,-5.288c-0,-4.406 1.762,-5.287 10.575,-5.287c8.814,-0 10.576,-0.882 10.576,-5.288c0,-3.526 -1.762,-5.288 -5.288,-5.288c-4.406,-0 -5.288,-1.763 -5.288,-10.576c0,-8.813 0.882,-10.576 5.288,-10.576c3.526,0 5.288,-1.762 5.288,-5.288c0,-4.406 1.763,-5.288 10.576,-5.288c8.813,0 10.576,-0.881 10.576,-5.288c-0,-4.406 1.762,-5.287 10.576,-5.287c8.813,-0 10.575,0.881 10.575,5.287c0,3.526 1.763,5.288 5.288,5.288c3.526,0 5.288,1.763 5.288,5.288c0,4.407 1.763,5.288 10.576,5.288c8.813,0 10.576,0.882 10.576,5.288c-0,3.525 -1.763,5.288 -5.288,5.288c-3.525,0 -5.288,1.763 -5.288,5.288c0,3.525 -1.763,5.288 -5.288,5.288c-3.525,-0 -5.288,1.762 -5.288,5.288c0,3.525 1.763,5.288 5.288,5.288c3.525,-0 5.288,1.762 5.288,5.287c0,3.526 1.763,5.288 5.288,5.288c4.407,0 5.288,1.763 5.288,10.576c-0,8.813 0.881,10.576 5.288,10.576c4.406,-0 5.288,-1.763 5.288,-10.576c-0,-8.813 -0.882,-10.576 -5.288,-10.576c-3.526,0 -5.288,-1.762 -5.288,-5.288c-0,-3.525 1.762,-5.287 5.288,-5.287c3.525,-0 5.288,-1.763 5.288,-5.288c-0,-3.526 -1.763,-5.288 -5.288,-5.288c-3.526,-0 -5.288,-1.763 -5.288,-5.288c-0,-3.525 1.762,-5.288 5.288,-5.288c4.406,0 5.288,-1.763 5.288,-10.576l-0,-10.576l-10.576,0c-8.813,0 -10.576,-0.881 -10.576,-5.288c0,-3.525 -1.763,-5.287 -5.288,-5.287c-3.525,-0 -5.288,-1.763 -5.288,-5.288c0,-3.526 -1.762,-5.288 -5.288,-5.288c-3.525,-0 -5.288,-1.763 -5.288,-5.288c0,-3.525 -1.762,-5.288 -5.287,-5.288c-3.526,-0 -5.288,1.763 -5.288,5.288c-0,4.406 -1.763,5.288 -10.576,5.288c-8.813,-0 -10.576,-0.882 -10.576,-5.288c-0,-3.525 1.763,-5.288 5.288,-5.288c3.525,-0 5.288,-1.763 5.288,-5.288c-0,-3.525 -1.763,-5.288 -5.288,-5.288c-3.525,0 -5.288,-1.762 -5.288,-5.288c-0,-4.847 1.763,-5.288 21.152,-5.288c19.389,0 21.151,-0.44 21.151,-5.288c0,-3.525 -1.762,-5.287 -5.288,-5.287c-3.525,-0 -5.288,-1.763 -5.288,-5.288c0,-3.526 -1.762,-5.288 -5.287,-5.288c-3.526,-0 -5.288,1.762 -5.288,5.288c-0,4.406 -1.763,5.288 -10.576,5.288c-8.813,-0 -10.576,-0.882 -10.576,-5.288c-0,-3.526 1.763,-5.288 5.288,-5.288c3.525,-0 5.288,-1.763 5.288,-5.288c-0,-4.407 1.762,-5.288 10.576,-5.288c8.813,-0 10.575,-0.881 10.575,-5.288c0,-3.525 -1.762,-5.288 -5.287,-5.288c-3.526,0 -5.288,-1.763 -5.288,-5.288c-0,-3.525 1.762,-5.288 5.288,-5.288c3.525,0 5.287,-1.762 5.287,-5.288c0,-3.525 -1.762,-5.287 -5.287,-5.287c-3.526,-0 -5.288,-1.763 -5.288,-5.288c-0,-3.526 -1.763,-5.288 -5.288,-5.288c-3.526,-0 -5.288,-1.763 -5.288,-5.288c-0,-3.525 1.762,-5.288 5.288,-5.288c3.525,-0 5.288,-1.763 5.288,-5.288c-0,-4.407 -1.763,-5.288 -10.576,-5.288c-8.813,0 -10.576,-0.881 -10.576,-5.288c-0,-3.525 1.763,-5.288 5.288,-5.288c4.406,0 5.288,-1.762 5.288,-10.575c-0,-8.814 0.881,-10.576 5.288,-10.576c3.525,-0 5.288,-1.763 5.288,-5.288c-0,-3.525 -1.763,-5.288 -5.288,-5.288c-3.526,-0 -5.288,1.763 -5.288,5.288c-0,4.406 -1.763,5.288 -10.576,5.288c-8.813,-0 -10.576,0.881 -10.576,5.288c0,3.525 -1.762,5.288 -5.288,5.288c-3.525,-0 -5.288,1.762 -5.288,5.287c0,3.526 1.763,5.288 5.288,5.288c3.526,0 5.288,1.763 5.288,5.288c0,4.701 -1.762,5.288 -15.864,5.288c-14.101,0 -15.863,0.588 -15.863,5.288c-0,4.407 -1.763,5.288 -10.576,5.288c-8.813,-0 -10.576,-0.881 -10.576,-5.288c0,-3.525 1.763,-5.288 5.288,-5.288c4.407,0 5.288,-1.762 5.288,-10.576c0,-8.813 0.881,-10.575 5.288,-10.575c3.525,-0 5.288,1.762 5.288,5.287c-0,3.526 1.762,5.288 5.288,5.288c3.525,0 5.288,-1.762 5.288,-5.288c-0,-3.525 -1.763,-5.287 -5.288,-5.287c-3.526,-0 -5.288,-1.763 -5.288,-5.288c-0,-3.526 1.762,-5.288 5.288,-5.288c3.525,-0 5.288,-1.763 5.288,-5.288c-0,-3.525 -1.763,-5.288 -5.288,-5.288c-3.526,-0 -5.288,1.763 -5.288,5.288c-0,3.525 -1.763,5.288 -5.288,5.288c-3.525,-0 -5.288,-1.763 -5.288,-5.288c0,-3.525 -1.763,-5.288 -5.288,-5.288c-3.525,-0 -5.288,-1.763 -5.288,-5.288c0,-3.525 -1.762,-5.288 -5.288,-5.288c-3.525,0 -5.288,1.763 -5.288,5.288c0,3.525 1.763,5.288 5.288,5.288c4.407,-0 5.288,1.763 5.288,10.576c0,8.813 -0.881,10.576 -5.288,10.576c-3.525,-0 -5.288,1.762 -5.288,5.287c0,3.526 -1.762,5.288 -5.288,5.288c-4.406,0 -5.287,1.763 -5.287,10.576l-0,10.576l-10.576,-0c-8.813,-0 -10.576,0.881 -10.576,5.288c-0,3.525 -1.763,5.288 -5.288,5.288c-4.407,-0 -5.288,-1.763 -5.288,-10.576c0,-8.813 0.882,-10.576 5.288,-10.576c4.7,0 5.288,-1.762 5.288,-15.864c-0,-14.101 0.588,-15.863 5.288,-15.863c3.525,-0 5.288,1.762 5.288,5.288c-0,3.525 1.762,5.288 5.288,5.288c3.525,-0 5.288,-1.763 5.288,-5.288c-0,-3.526 -1.763,-5.288 -5.288,-5.288c-3.526,-0 -5.288,-1.763 -5.288,-5.288c-0,-3.525 1.762,-5.288 5.288,-5.288c4.406,-0 5.288,-1.763 5.288,-10.576c-0,-8.813 0.881,-10.576 5.287,-10.576c3.526,0 5.288,-1.762 5.288,-5.288c0,-3.525 1.763,-5.287 5.288,-5.287c3.526,-0 5.288,1.762 5.288,5.287c0,3.526 1.763,5.288 5.288,5.288c3.525,0 5.288,-1.762 5.288,-5.288c0,-3.525 1.763,-5.287 5.288,-5.287c3.525,-0 5.288,-1.763 5.288,-5.288c-0,-4.701 1.762,-5.288 15.863,-5.288c14.102,-0 15.864,-0.588 15.864,-5.288c0,-4.701 -1.762,-5.288 -15.864,-5.288c-14.101,-0 -15.863,-0.588 -15.863,-5.288c-0,-3.525 1.762,-5.288 5.288,-5.288c3.525,0 5.288,-1.763 5.288,-5.288c-0,-4.406 -1.763,-5.288 -10.576,-5.288l-10.576,0l0,31.728l-10.576,-0c-8.813,-0 -10.576,0.881 -10.576,5.288c0,3.525 -1.762,5.288 -5.288,5.288c-3.525,-0 -5.287,-1.763 -5.287,-5.288c-0,-4.701 -1.763,-5.288 -15.864,-5.288c-14.101,-0 -15.864,0.587 -15.864,5.288c0,3.525 -1.762,5.288 -5.288,5.288c-3.525,-0 -5.288,-1.763 -5.288,-5.288c0,-4.407 -1.762,-5.288 -10.575,-5.288l-10.576,-0l-0,10.576c-0,8.813 -0.882,10.575 -5.288,10.575c-4.847,0 -5.288,-1.762 -5.288,-21.151c-0,-19.389 -0.441,-21.152 -5.288,-21.152c-3.525,0 -5.288,-1.763 -5.288,-5.288c0,-3.525 1.763,-5.288 5.288,-5.288c3.525,0 5.288,-1.762 5.288,-5.288c-0,-4.7 -1.763,-5.288 -15.864,-5.288l-15.863,0l-0,21.152l21.151,0l0,10.576c0,8.813 -0.881,10.576 -5.288,10.576c-3.525,-0 -5.288,1.762 -5.288,5.288c0,3.525 -1.762,5.288 -5.288,5.288c-4.406,-0 -5.287,1.762 -5.287,10.575l-0,10.576l10.575,0c8.814,0 10.576,-0.881 10.576,-5.288c0,-3.525 1.763,-5.288 5.288,-5.288c3.525,0 5.288,1.763 5.288,5.288c-0,3.526 1.763,5.288 5.288,5.288c3.525,0 5.288,-1.762 5.288,-5.288c-0,-3.525 1.762,-5.288 5.288,-5.288c3.525,0 5.288,-1.762 5.288,-5.288c-0,-3.525 1.762,-5.287 5.288,-5.287c3.525,-0 5.287,1.762 5.287,5.287c0,3.526 1.763,5.288 5.288,5.288c3.526,0 5.288,-1.762 5.288,-5.288c0,-3.525 1.763,-5.287 5.288,-5.287c4.407,-0 5.288,1.762 5.288,10.575l-0,10.576l-10.576,0c-8.813,0 -10.576,0.882 -10.576,5.288c0,3.525 -1.762,5.288 -5.287,5.288c-3.526,-0 -5.288,1.763 -5.288,5.288c-0,3.525 1.762,5.288 5.288,5.288c3.525,-0 5.287,-1.763 5.287,-5.288c0,-4.407 1.763,-5.288 10.576,-5.288c8.813,-0 10.576,0.881 10.576,5.288c-0,3.525 -1.763,5.288 -5.288,5.288c-3.525,-0 -5.288,1.762 -5.288,5.288c0,4.406 -1.762,5.288 -10.576,5.288c-8.813,-0 -10.575,0.881 -10.575,5.287c-0,4.407 1.762,5.288 10.575,5.288c8.814,0 10.576,0.882 10.576,5.288c0,3.526 -1.762,5.288 -5.288,5.288c-3.525,0 -5.288,1.763 -5.288,5.288c0,3.525 -1.762,5.288 -5.287,5.288c-3.526,-0 -5.288,1.763 -5.288,5.288c-0,3.525 1.762,5.288 5.288,5.288c3.525,-0 5.287,1.762 5.287,5.288c0,4.7 -1.762,5.288 -15.863,5.288c-14.101,-0 -15.864,0.587 -15.864,5.287c-0,4.701 1.763,5.288 15.864,5.288c14.101,0 15.863,0.588 15.863,5.288c0,4.701 -1.762,5.288 -15.863,5.288c-14.101,0 -15.864,0.588 -15.864,5.288c-0,4.407 -1.763,5.288 -10.576,5.288c-8.813,-0 -10.576,0.881 -10.576,5.288c0,4.847 -1.762,5.288 -21.151,5.288c-19.389,-0 -21.152,0.44 -21.152,5.288c0,3.525 1.763,5.288 5.288,5.288c3.525,-0 5.288,1.762 5.288,5.287c-0,3.526 1.763,5.288 5.288,5.288c3.525,0 5.288,-1.762 5.288,-5.288c-0,-3.525 1.762,-5.287 5.288,-5.287c3.525,-0 5.288,1.762 5.288,5.287c-0,4.701 1.762,5.288 15.863,5.288c14.101,0 15.864,0.588 15.864,5.288c-0,3.526 1.763,5.288 5.288,5.288c3.525,0 5.288,-1.762 5.288,-5.288c-0,-3.525 1.762,-5.288 5.288,-5.288c3.525,0 5.288,-1.762 5.288,-5.288c-0,-3.525 1.762,-5.287 5.288,-5.287c3.525,-0 5.287,-1.763 5.287,-5.288c0,-3.526 1.763,-5.288 5.288,-5.288c3.526,-0 5.288,1.762 5.288,5.288c0,4.406 1.763,5.288 10.576,5.288c8.813,-0 10.576,-0.882 10.576,-5.288c-0,-3.526 1.762,-5.288 5.288,-5.288c3.525,-0 5.288,1.762 5.288,5.288c-0,3.525 1.762,5.288 5.287,5.288c3.526,-0 5.288,-1.763 5.288,-5.288c0,-3.526 -1.762,-5.288 -5.288,-5.288c-3.525,-0 -5.287,-1.763 -5.287,-5.288c-0,-3.525 1.762,-5.288 5.287,-5.288c3.526,-0 5.288,-1.763 5.288,-5.288c0,-4.7 1.763,-5.288 15.864,-5.288c14.101,0 15.864,0.588 15.864,5.288c-0,3.525 -1.763,5.288 -5.288,5.288c-3.525,-0 -5.288,1.763 -5.288,5.288c0,4.7 1.763,5.288 15.864,5.288c14.101,-0 15.863,0.587 15.863,5.288c0,3.525 -1.762,5.288 -5.288,5.288c-3.525,-0 -5.287,1.762 -5.287,5.287c-0,3.526 -1.763,5.288 -5.288,5.288c-3.526,0 -5.288,-1.762 -5.288,-5.288c-0,-3.525 -1.763,-5.287 -5.288,-5.287c-3.525,-0 -5.288,1.762 -5.288,5.287c0,4.407 -1.763,5.288 -10.576,5.288c-8.813,0 -10.576,0.882 -10.576,5.288c0,4.407 1.763,5.288 10.576,5.288c8.813,0 10.576,0.882 10.576,5.288c0,4.7 1.763,5.288 15.864,5.288c14.101,-0 15.863,0.588 15.863,5.288c0,4.406 -1.762,5.288 -10.575,5.288c-8.814,-0 -10.576,0.881 -10.576,5.288c-0,3.525 -1.763,5.288 -5.288,5.288c-3.525,-0 -5.288,-1.763 -5.288,-5.288c0,-3.526 -1.763,-5.288 -5.288,-5.288c-3.525,-0 -5.288,-1.763 -5.288,-5.288c0,-3.525 -1.762,-5.288 -5.288,-5.288c-3.525,-0 -5.288,1.763 -5.288,5.288c0,3.525 1.763,5.288 5.288,5.288c3.526,-0 5.288,1.762 5.288,5.288c0,4.7 -1.762,5.288 -15.864,5.288c-14.101,-0 -15.863,0.587 -15.863,5.287c-0,4.407 1.762,5.288 10.576,5.288c8.813,0 10.575,0.882 10.575,5.288c0,4.407 -1.762,5.288 -10.575,5.288c-8.814,0 -10.576,0.882 -10.576,5.288c-0,3.525 1.762,5.288 5.288,5.288c4.7,0 5.288,1.763 5.288,15.864l-0,15.863l10.575,0c8.814,0 10.576,0.882 10.576,5.288c0,3.526 -1.762,5.288 -5.288,5.288c-3.525,0 -5.288,1.763 -5.288,5.288c0,3.525 1.763,5.288 5.288,5.288c3.526,-0 5.288,-1.763 5.288,-5.288Zm0,-21.152c0,-3.525 -1.762,-5.287 -5.288,-5.287c-3.525,-0 -5.288,-1.763 -5.288,-5.288c0,-3.526 1.763,-5.288 5.288,-5.288c3.526,-0 5.288,-1.763 5.288,-5.288c0,-3.525 -1.762,-5.288 -5.288,-5.288c-3.525,0 -5.288,-1.763 -5.288,-5.288c0,-3.525 1.763,-5.288 5.288,-5.288c3.526,0 5.288,1.763 5.288,5.288c0,3.525 1.763,5.288 5.288,5.288c4.407,0 5.288,-1.763 5.288,-10.576c0,-8.813 0.881,-10.576 5.288,-10.576c3.525,0 5.288,1.763 5.288,5.288c-0,3.526 1.762,5.288 5.288,5.288c4.406,0 5.288,-1.762 5.288,-10.576l-0,-10.575l10.575,-0c8.814,-0 10.576,-0.882 10.576,-5.288c0,-3.526 1.763,-5.288 5.288,-5.288c3.525,-0 5.288,1.762 5.288,5.288c-0,3.525 -1.763,5.288 -5.288,5.288c-3.525,-0 -5.288,1.762 -5.288,5.287c0,3.526 -1.762,5.288 -5.288,5.288c-3.525,0 -5.288,1.763 -5.288,5.288c0,3.526 -1.762,5.288 -5.288,5.288c-4.406,0 -5.287,1.763 -5.287,10.576c-0,8.813 -0.882,10.576 -5.288,10.576c-3.526,-0 -5.288,-1.763 -5.288,-5.288c-0,-3.525 -1.763,-5.288 -5.288,-5.288c-3.525,0 -5.288,1.763 -5.288,5.288c0,3.525 -1.763,5.288 -5.288,5.288c-3.525,-0 -5.288,1.762 -5.288,5.288c0,4.406 1.763,5.288 10.576,5.288c8.813,-0 10.576,0.881 10.576,5.287c-0,4.407 -1.763,5.288 -10.576,5.288c-8.813,0 -10.576,-0.881 -10.576,-5.288Zm116.334,-10.575c0,-3.526 1.763,-5.288 5.288,-5.288c3.525,-0 5.288,1.762 5.288,5.288c-0,3.525 -1.763,5.288 -5.288,5.288c-3.525,-0 -5.288,-1.763 -5.288,-5.288Zm-63.455,-74.031c0,-4.407 -1.762,-5.288 -10.576,-5.288c-8.813,0 -10.575,-0.881 -10.575,-5.288c-0,-4.406 1.762,-5.288 10.575,-5.288c8.814,0 10.576,-0.881 10.576,-5.288c0,-3.525 1.763,-5.287 5.288,-5.287c3.525,-0 5.288,1.762 5.288,5.287c-0,3.526 -1.763,5.288 -5.288,5.288c-3.525,0 -5.288,1.763 -5.288,5.288c0,3.526 1.763,5.288 5.288,5.288c3.525,0 5.288,1.763 5.288,5.288c-0,3.525 -1.763,5.288 -5.288,5.288c-3.525,-0 -5.288,-1.763 -5.288,-5.288Zm-169.213,-31.727c0,-3.526 1.763,-5.288 5.288,-5.288c3.526,-0 5.288,1.762 5.288,5.288c0,3.525 -1.762,5.288 -5.288,5.288c-3.525,-0 -5.288,-1.763 -5.288,-5.288Zm21.152,-10.576c-0,-3.525 1.763,-5.288 5.288,-5.288c3.525,-0 5.288,1.763 5.288,5.288c-0,3.525 -1.763,5.288 -5.288,5.288c-3.525,-0 -5.288,-1.763 -5.288,-5.288Zm21.152,-0c-0,-3.525 1.762,-5.288 5.288,-5.288c3.525,-0 5.287,1.763 5.287,5.288c0,3.525 -1.762,5.288 -5.287,5.288c-3.526,-0 -5.288,-1.763 -5.288,-5.288Zm21.151,-0c0,-3.525 1.763,-5.288 5.288,-5.288c3.525,-0 5.288,1.763 5.288,5.288c-0,3.525 -1.763,5.288 -5.288,5.288c-3.525,-0 -5.288,-1.763 -5.288,-5.288Zm95.182,-0c0,-3.525 -1.762,-5.288 -5.288,-5.288c-3.525,-0 -5.287,-1.763 -5.287,-5.288c-0,-3.525 -1.763,-5.288 -5.288,-5.288c-3.526,0 -5.288,-1.763 -5.288,-5.288c-0,-4.935 -1.763,-5.288 -26.44,-5.288c-24.677,0 -26.439,-0.352 -26.439,-5.288c-0,-5.067 1.762,-5.287 42.303,-5.287c40.541,-0 42.303,-0.22 42.303,-5.288c0,-3.526 -1.762,-5.288 -5.288,-5.288c-3.525,-0 -5.288,-1.763 -5.288,-5.288c0,-3.525 1.763,-5.288 5.288,-5.288c3.526,-0 5.288,-1.763 5.288,-5.288c0,-3.525 1.763,-5.288 5.288,-5.288c4.7,0 5.288,1.763 5.288,15.864l-0,15.864l10.576,-0c8.813,-0 10.576,0.881 10.576,5.287c-0,3.526 -1.763,5.288 -5.288,5.288c-4.407,0 -5.288,1.763 -5.288,10.576l-0,10.576l-10.576,-0c-8.813,-0 -10.576,0.881 -10.576,5.288c0,3.525 -1.762,5.288 -5.288,5.288c-3.525,-0 -5.288,-1.763 -5.288,-5.288Zm10.576,-21.152c0,-4.406 -1.762,-5.288 -10.576,-5.288c-8.813,0 -10.575,0.882 -10.575,5.288c-0,4.407 1.762,5.288 10.575,5.288c8.814,0 10.576,-0.881 10.576,-5.288Zm-84.606,10.576c-0,-3.525 1.762,-5.288 5.288,-5.288c3.525,0 5.288,1.763 5.288,5.288c-0,3.525 -1.763,5.288 -5.288,5.288c-3.526,-0 -5.288,-1.763 -5.288,-5.288Zm-21.152,-21.152c0,-3.525 1.763,-5.287 5.288,-5.287c3.525,-0 5.288,1.762 5.288,5.287c-0,3.526 -1.763,5.288 -5.288,5.288c-3.525,0 -5.288,-1.762 -5.288,-5.288Zm42.303,-21.151c0,-3.525 1.763,-5.288 5.288,-5.288c3.526,-0 5.288,1.763 5.288,5.288c0,3.525 -1.762,5.288 -5.288,5.288c-3.525,-0 -5.288,-1.763 -5.288,-5.288Zm0,-21.152c0,-3.525 1.763,-5.288 5.288,-5.288c3.526,0 5.288,1.763 5.288,5.288c0,3.526 -1.762,5.288 -5.288,5.288c-3.525,0 -5.288,-1.762 -5.288,-5.288Zm63.455,-10.576c0,-3.525 1.763,-5.287 5.288,-5.287c3.525,-0 5.288,1.762 5.288,5.287c-0,3.526 -1.763,5.288 -5.288,5.288c-3.525,0 -5.288,-1.762 -5.288,-5.288Zm-169.213,-52.879c0,-3.525 1.763,-5.287 5.288,-5.287c3.526,-0 5.288,1.762 5.288,5.287c0,3.526 -1.762,5.288 -5.288,5.288c-3.525,0 -5.288,-1.762 -5.288,-5.288Zm84.607,0c-0,-3.525 1.762,-5.287 5.288,-5.287c3.525,-0 5.288,1.762 5.288,5.287c-0,3.526 -1.763,5.288 -5.288,5.288c-3.526,0 -5.288,-1.762 -5.288,-5.288Zm126.909,269.683l0,-31.727l-31.727,0l-0,31.727l31.727,0Zm-21.151,-15.863c-0,-3.526 1.762,-5.288 5.288,-5.288c3.525,-0 5.288,1.762 5.288,5.288c-0,3.525 -1.763,5.288 -5.288,5.288c-3.526,-0 -5.288,-1.763 -5.288,-5.288Zm-158.637,-0c-0,-3.526 1.762,-5.288 5.288,-5.288c3.525,-0 5.288,-1.763 5.288,-5.288c-0,-3.525 -1.763,-5.288 -5.288,-5.288c-3.526,0 -5.288,1.763 -5.288,5.288c-0,3.525 -1.763,5.288 -5.288,5.288c-4.407,-0 -5.288,-1.763 -5.288,-10.576c-0,-8.813 0.881,-10.576 5.288,-10.576c4.406,0 5.288,-1.762 5.288,-10.576c-0,-8.813 -0.882,-10.575 -5.288,-10.575c-3.525,-0 -5.288,1.762 -5.288,5.287c-0,3.526 -1.763,5.288 -5.288,5.288c-4.407,0 -5.288,1.763 -5.288,10.576c0,8.813 -0.881,10.576 -5.288,10.576c-4.406,0 -5.288,1.763 -5.288,10.576l0,10.576l15.864,-0c14.101,-0 15.864,-0.588 15.864,-5.288Zm52.879,-0c-0,-3.526 -1.763,-5.288 -5.288,-5.288c-3.525,-0 -5.288,1.762 -5.288,5.288c-0,3.525 1.763,5.288 5.288,5.288c3.525,-0 5.288,-1.763 5.288,-5.288Zm-137.486,-31.728c0,-4.7 -1.762,-5.288 -15.863,-5.288c-14.101,0 -15.864,0.588 -15.864,5.288c-0,4.701 1.763,5.288 15.864,5.288c14.101,0 15.863,-0.587 15.863,-5.288Zm95.183,-31.727c-0,-3.525 1.762,-5.288 5.288,-5.288c3.525,-0 5.287,-1.763 5.287,-5.288c0,-3.525 -1.762,-5.288 -5.287,-5.288c-3.526,0 -5.288,1.763 -5.288,5.288c-0,3.525 -1.763,5.288 -5.288,5.288c-3.526,-0 -5.288,1.763 -5.288,5.288c-0,3.525 1.762,5.288 5.288,5.288c3.525,-0 5.288,-1.763 5.288,-5.288Zm-95.183,-52.879c0,-4.407 1.763,-5.288 10.576,-5.288l10.576,-0l-0,-10.576c-0,-8.813 0.881,-10.576 5.288,-10.576c3.525,0 5.288,1.763 5.288,5.288c-0,4.701 1.762,5.288 15.863,5.288c14.102,0 15.864,-0.587 15.864,-5.288c0,-3.525 -1.762,-5.288 -5.288,-5.288c-3.525,0 -5.288,-1.762 -5.288,-5.288c0,-3.525 1.763,-5.287 5.288,-5.287c3.526,-0 5.288,-1.763 5.288,-5.288c0,-3.526 -1.762,-5.288 -5.288,-5.288c-3.525,-0 -5.288,1.762 -5.288,5.288c0,3.525 -1.762,5.288 -5.288,5.288c-4.406,-0 -5.287,-1.763 -5.287,-10.576l-0,-10.576l-21.152,-0l-0,10.576c-0,8.813 -0.881,10.576 -5.288,10.576c-4.407,-0 -5.288,1.762 -5.288,10.575c0,8.813 -0.881,10.576 -5.288,10.576c-3.525,0 -5.288,-1.763 -5.288,-5.288c0,-3.525 -1.762,-5.288 -5.288,-5.288c-3.525,0 -5.287,-1.762 -5.287,-5.288c-0,-3.525 1.762,-5.287 5.287,-5.287c3.526,-0 5.288,-1.763 5.288,-5.288c0,-3.526 -1.762,-5.288 -5.288,-5.288c-3.525,-0 -5.287,-1.763 -5.287,-5.288c-0,-3.525 -1.763,-5.288 -5.288,-5.288c-3.526,-0 -5.288,1.763 -5.288,5.288c-0,3.525 -1.763,5.288 -5.288,5.288c-3.525,-0 -5.288,-1.763 -5.288,-5.288c-0,-3.525 -1.763,-5.288 -5.288,-5.288c-4.407,-0 -5.288,1.763 -5.288,10.576c0,8.813 -0.881,10.576 -5.288,10.576c-4.406,-0 -5.288,-1.763 -5.288,-10.576c0,-8.813 -0.881,-10.576 -5.288,-10.576c-4.406,-0 -5.287,1.763 -5.287,10.576c-0,8.813 0.881,10.576 5.287,10.576c4.701,-0 5.288,1.762 5.288,15.863l0,15.864l21.152,-0c19.389,-0 21.152,0.441 21.152,5.288c-0,3.525 1.762,5.288 5.287,5.288c3.526,-0 5.288,-1.763 5.288,-5.288Zm-10.575,-10.576c-0,-4.7 -1.763,-5.288 -15.864,-5.288l-15.864,0l0,-21.151l10.576,-0c8.813,-0 10.576,0.881 10.576,5.287c-0,3.526 1.762,5.288 5.288,5.288c3.525,0 5.288,1.763 5.288,5.288c-0,3.525 1.762,5.288 5.287,5.288c3.526,0 5.288,1.763 5.288,5.288c0,3.525 -1.762,5.288 -5.288,5.288c-3.525,-0 -5.287,-1.763 -5.287,-5.288Zm-31.728,-63.455c0,-3.525 -1.762,-5.288 -5.288,-5.288c-3.525,0 -5.288,1.763 -5.288,5.288c0,3.526 1.763,5.288 5.288,5.288c3.526,0 5.288,-1.762 5.288,-5.288Zm31.728,0c-0,-3.525 1.762,-5.288 5.287,-5.288c3.526,0 5.288,-1.762 5.288,-5.288c0,-3.525 -1.762,-5.287 -5.288,-5.287c-3.525,-0 -5.287,1.762 -5.287,5.287c-0,4.407 -1.763,5.288 -10.576,5.288c-8.813,0 -10.576,0.882 -10.576,5.288c-0,4.407 1.763,5.288 10.576,5.288c8.813,0 10.576,-0.881 10.576,-5.288Zm285.546,-15.863c0,-8.814 0.882,-10.576 5.288,-10.576c4.407,-0 5.288,1.762 5.288,10.576l0,10.575l10.576,0c8.813,0 10.576,-0.881 10.576,-5.288c-0,-3.525 -1.763,-5.287 -5.288,-5.287c-4.407,-0 -5.288,-1.763 -5.288,-10.576l-0,-10.576l-31.728,-0l0,10.576c0,8.813 -0.881,10.576 -5.287,10.576c-3.526,-0 -5.288,1.762 -5.288,5.287c-0,4.407 1.762,5.288 10.575,5.288l10.576,0l0,-10.575Zm-243.243,-42.304c-0,-8.813 -0.882,-10.575 -5.288,-10.575c-4.407,-0 -5.288,1.762 -5.288,10.575c-0,8.814 0.881,10.576 5.288,10.576c4.406,0 5.288,-1.762 5.288,-10.576Zm126.909,-37.015c0,-3.525 -1.762,-5.288 -5.288,-5.288c-3.525,0 -5.287,1.763 -5.287,5.288c-0,3.525 1.762,5.288 5.287,5.288c3.526,-0 5.288,-1.763 5.288,-5.288Zm-52.879,349.002c0,-3.526 -1.762,-5.288 -5.287,-5.288c-3.526,-0 -5.288,-1.763 -5.288,-5.288c-0,-3.526 1.762,-5.288 5.288,-5.288c3.525,-0 5.287,1.762 5.287,5.288c0,3.525 1.763,5.288 5.288,5.288c3.526,-0 5.288,-1.763 5.288,-5.288c0,-3.526 1.763,-5.288 5.288,-5.288c3.525,-0 5.288,1.762 5.288,5.288c-0,3.525 -1.763,5.288 -5.288,5.288c-3.525,-0 -5.288,1.762 -5.288,5.288c0,3.525 -1.762,5.287 -5.288,5.287c-3.525,0 -5.288,-1.762 -5.288,-5.287Zm-84.606,-116.334c-0,-3.526 1.763,-5.288 5.288,-5.288c3.525,-0 5.288,1.762 5.288,5.288c-0,3.525 -1.763,5.288 -5.288,5.288c-3.525,-0 -5.288,-1.763 -5.288,-5.288Zm-95.182,-52.879c-0,-3.526 1.762,-5.288 5.288,-5.288c3.525,-0 5.288,1.762 5.288,5.288c-0,3.525 -1.763,5.288 -5.288,5.288c-3.526,-0 -5.288,-1.763 -5.288,-5.288Zm380.729,-10.576c-0,-3.525 -1.763,-5.288 -5.288,-5.288c-3.526,-0 -5.288,-1.763 -5.288,-5.288c-0,-3.525 -1.763,-5.288 -5.288,-5.288c-4.407,0 -5.288,-1.763 -5.288,-10.576c0,-8.813 0.881,-10.575 5.288,-10.575c4.407,-0 5.288,-1.763 5.288,-10.576l-0,-10.576l21.151,-0l0,21.152l-10.575,-0c-8.814,-0 -10.576,0.881 -10.576,5.287c-0,3.526 1.762,5.288 5.288,5.288c3.525,0 5.288,1.763 5.288,5.288c-0,3.525 1.762,5.288 5.287,5.288c4.407,0 5.288,1.763 5.288,10.576c0,8.813 -0.881,10.576 -5.288,10.576c-3.525,-0 -5.287,-1.763 -5.287,-5.288Zm-274.971,-84.607c-0,-3.525 1.762,-5.287 5.288,-5.287c3.525,-0 5.288,1.762 5.288,5.287c-0,3.526 -1.763,5.288 -5.288,5.288c-3.526,0 -5.288,-1.762 -5.288,-5.288Zm-105.758,-47.591l-0,-74.03l74.03,-0l0,74.03l-74.03,0Zm63.455,-10.575l-0,-52.88l-52.879,0l-0,52.88l52.879,-0Zm-42.304,-10.576l0,-31.728l31.728,0l-0,31.728l-31.728,-0Zm296.123,21.151l-0,-74.03l74.03,-0l0,74.03l-74.03,0Zm63.455,-10.575l-0,-52.88l-52.879,0l-0,52.88l52.879,-0Zm-42.304,-10.576l0,-31.728l31.728,0l-0,31.728l-31.728,-0Z" style="fill-rule:nonzero;"/></g><g id="g11" serif:id="g1"></g></svg>