<?xml version="1.0" encoding="UTF-8" standalone="no"?><!DOCTYPE svg PUBLIC "-//W3C//DTD SVG 1.1//EN" "http://www.w3.org/Graphics/SVG/1.1/DTD/svg11.dtd"><svg width="100%" height="100%" viewBox="0 0 456 456" version="1.1" xmlns="http://www.w3.org/2000/svg" xmlns:xlink="http://www.w3.org/1999/xlink" xml:space="preserve" xmlns:serif="http://www.serif.com/" style="fill-rule:evenodd;clip-rule:evenodd;stroke-linejoin:round;stroke-miterlimit:2;"><path d="M455.366,26.203l0,402.96c0,14.462 -11.741,26.203 -26.203,26.203l-402.96,0c-14.462,0 -26.203,-11.741 -26.203,-26.203l0,-402.96c0,-14.462 11.741,-26.203 26.203,-26.203l402.96,0c14.462,0 26.203,11.741 26.203,26.203Z" style="fill:#f8f8f2;"/><path id="path1" d="M46.433,408.933l0,-87.5l87.5,0l0,87.5l-87.5,0Zm75,-12.5l0,-62.5l-62.5,0l0,62.5l62.5,0Zm-50,-12.5l0,-37.5l37.5,0l0,37.5l-37.5,0Zm75,18.75c0,-4.167 2.083,-6.25 6.25,-6.25c4.167,0 6.25,-2.083 6.25,-6.25c0,-4.167 -2.083,-6.25 -6.25,-6.25c-5.729,0 -6.25,-2.083 -6.25,-25c0,-22.917 0.521,-25 6.25,-25c4.167,0 6.25,-2.083 6.25,-6.25c0,-4.167 -2.083,-6.25 -6.25,-6.25c-4.167,0 -6.25,-2.083 -6.25,-6.25c0,-5.903 -2.083,-6.25 -37.5,-6.25c-35.417,0 -37.5,-0.347 -37.5,-6.25c0,-4.167 2.083,-6.25 6.25,-6.25c4.167,0 6.25,-2.083 6.25,-6.25c0,-4.167 -2.083,-6.25 -6.25,-6.25c-4.167,0 -6.25,-2.083 -6.25,-6.25c0,-4.167 -2.083,-6.25 -6.25,-6.25c-5.555,0 -6.25,2.083 -6.25,18.75c0,16.667 -0.694,18.75 -6.25,18.75c-5.729,0 -6.25,-2.083 -6.25,-25l0,-25l12.5,0c10.417,0 12.5,-1.042 12.5,-6.25c0,-5.208 -2.083,-6.25 -12.5,-6.25l-12.5,0l0,-37.5l25,0l0,-12.5c0,-10.417 1.042,-12.5 6.25,-12.5c5.208,0 6.25,-2.083 6.25,-12.5c0,-10.417 -1.042,-12.5 -6.25,-12.5c-4.167,0 -6.25,2.083 -6.25,6.25c0,4.167 -2.083,6.25 -6.25,6.25c-5.208,0 -6.25,2.083 -6.25,12.5c0,10.417 -1.042,12.5 -6.25,12.5c-5.729,0 -6.25,-2.083 -6.25,-25c0,-22.917 0.521,-25 6.25,-25c4.167,0 6.25,2.083 6.25,6.25c0,4.167 2.083,6.25 6.25,6.25c4.167,0 6.25,-2.083 6.25,-6.25c0,-5.833 2.083,-6.25 31.25,-6.25c29.167,0 31.25,0.417 31.25,6.25c0,5.208 2.083,6.25 12.5,6.25c10.417,0 12.5,-1.042 12.5,-6.25c0,-4.167 -2.083,-6.25 -6.25,-6.25c-5.903,0 -6.25,-2.083 -6.25,-37.5c0,-35.417 0.347,-37.5 6.25,-37.5c5.208,0 6.25,-2.083 6.25,-12.5c0,-10.417 1.042,-12.5 6.25,-12.5c5.556,0 6.25,2.083 6.25,18.75c0,16.667 -0.694,18.75 -6.25,18.75c-5.729,0 -6.25,2.083 -6.25,25c0,22.917 0.521,25 6.25,25c5.556,0 6.25,-2.083 6.25,-18.75c0,-16.667 0.695,-18.75 6.25,-18.75c4.167,0 6.25,2.083 6.25,6.25c0,5.208 2.083,6.25 12.5,6.25c10.417,0 12.5,-1.042 12.5,-6.25c0,-4.167 -2.083,-6.25 -6.25,-6.25c-4.167,0 -6.25,-2.083 -6.25,-6.25c0,-5.208 2.083,-6.25 12.5,-6.25c10.417,0 12.5,-1.042 12.5,-6.25c0,-4.167 -2.083,-6.25 -6.25,-6.25c-4.167,0 -6.25,-2.083 -6.25,-6.25c0,-4.167 -2.083,-6.25 -6.25,-6.25c-4.167,0 -6.25,2.083 -6.25,6.25c0,4.167 -2.083,6.25 -6.25,6.25c-4.167,0 -6.25,-2.083 -6.25,-6.25c0,-4.167 2.083,-6.25 6.25,-6.25c4.167,0 6.25,-2.083 6.25,-6.25c0,-5.208 2.083,-6.25 12.5,-6.25c10.417,0 12.5,1.042 12.5,6.25c0,5.208 2.083,6.25 12.5,6.25c10.417,0 12.5,-1.042 12.5,-6.25c0,-5.833 2.083,-6.25 31.25,-6.25l31.25,0l0,37.5l-12.5,0c-10.417,0 -12.5,-1.042 -12.5,-6.25c0,-4.167 -2.083,-6.25 -6.25,-6.25c-4.167,0 -6.25,-2.083 -6.25,-6.25c0,-5.208 -2.083,-6.25 -12.5,-6.25l-12.5,0l0,25l12.5,0c10.417,0 12.5,1.042 12.5,6.25c0,4.167 -2.083,6.25 -6.25,6.25c-5.729,0 -6.25,2.083 -6.25,25c0,22.917 0.521,25 6.25,25c5.208,0 6.25,-2.083 6.25,-12.5c0,-10.417 1.042,-12.5 6.25,-12.5c4.167,0 6.25,2.083 6.25,6.25c0,4.167 2.083,6.25 6.25,6.25c4.167,0 6.25,-2.083 6.25,-6.25c0,-4.167 2.083,-6.25 6.25,-6.25c5.208,0 6.25,2.083 6.25,12.5c0,10.417 -1.042,12.5 -6.25,12.5c-5.208,0 -6.25,2.083 -6.25,12.5c0,10.417 -1.042,12.5 -6.25,12.5c-4.167,0 -6.25,2.083 -6.25,6.25c0,5.208 2.083,6.25 12.5,6.25l12.5,0l0,-12.5c0,-10.417 1.042,-12.5 6.25,-12.5c4.167,0 6.25,-2.083 6.25,-6.25c0,-5.833 2.083,-6.25 31.25,-6.25c29.167,0 31.25,0.417 31.25,6.25c0,5.208 -2.083,6.25 -12.5,6.25l-12.5,0l0,12.5c0,10.417 1.042,12.5 6.25,12.5c4.167,0 6.25,2.083 6.25,6.25c0,4.167 2.083,6.25 6.25,6.25c4.167,0 6.25,-2.083 6.25,-6.25c0,-4.167 2.083,-6.25 6.25,-6.25c4.167,0 6.25,2.083 6.25,6.25c0,4.167 -2.083,6.25 -6.25,6.25c-4.167,0 -6.25,2.083 -6.25,6.25c0,5.208 -2.083,6.25 -12.5,6.25c-10.417,0 -12.5,1.042 -12.5,6.25c0,5.208 2.083,6.25 12.5,6.25c10.417,0 12.5,1.042 12.5,6.25c0,4.167 2.083,6.25 6.25,6.25c4.167,0 6.25,2.083 6.25,6.25c0,4.167 -2.083,6.25 -6.25,6.25c-5.556,0 -6.25,2.083 -6.25,18.75c0,16.667 0.695,18.75 6.25,18.75c4.167,0 6.25,2.083 6.25,6.25c0,4.167 2.083,6.25 6.25,6.25c5.208,0 6.25,2.083 6.25,12.5l0,12.5l-12.5,0c-10.417,0 -12.5,1.042 -12.5,6.25c0,5.208 -2.083,6.25 -12.5,6.25l-12.5,0l0,12.5c0,10.417 1.042,12.5 6.25,12.5c4.167,0 6.25,-2.083 6.25,-6.25c0,-4.167 2.083,-6.25 6.25,-6.25c4.167,0 6.25,2.083 6.25,6.25c0,5.208 2.083,6.25 12.5,6.25c10.417,0 12.5,1.042 12.5,6.25c0,4.167 -2.083,6.25 -6.25,6.25c-5.208,0 -6.25,2.083 -6.25,12.5c0,10.417 -1.042,12.5 -6.25,12.5c-4.167,0 -6.25,2.083 -6.25,6.25c0,5.556 -2.083,6.25 -18.75,6.25c-16.667,0 -18.75,-0.694 -18.75,-6.25c0,-4.167 -2.083,-6.25 -6.25,-6.25c-4.167,0 -6.25,2.083 -6.25,6.25c0,4.167 -2.083,6.25 -6.25,6.25c-4.167,0 -6.25,-2.083 -6.25,-6.25c0,-5.208 -2.083,-6.25 -12.5,-6.25c-10.417,0 -12.5,1.042 -12.5,6.25c0,4.167 -2.083,6.25 -6.25,6.25c-5.208,0 -6.25,-2.083 -6.25,-12.5c0,-10.417 -1.042,-12.5 -6.25,-12.5c-4.167,0 -6.25,-2.083 -6.25,-6.25c0,-4.167 -2.083,-6.25 -6.25,-6.25c-5.208,0 -6.25,2.083 -6.25,12.5c0,10.417 1.042,12.5 6.25,12.5c4.167,0 6.25,2.083 6.25,6.25c0,4.167 -2.083,6.25 -6.25,6.25c-4.167,0 -6.25,-2.083 -6.25,-6.25c0,-4.167 -2.083,-6.25 -6.25,-6.25c-4.167,0 -6.25,-2.083 -6.25,-6.25c0,-5.208 -2.083,-6.25 -12.5,-6.25c-10.417,0 -12.5,1.042 -12.5,6.25c0,4.167 2.083,6.25 6.25,6.25c4.167,0 6.25,2.083 6.25,6.25c0,4.167 -2.083,6.25 -6.25,6.25c-4.167,0 -6.25,-2.083 -6.25,-6.25c0,-4.167 -2.083,-6.25 -6.25,-6.25c-4.167,0 -6.25,-2.083 -6.25,-6.25c0,-4.167 2.083,-6.25 6.25,-6.25c4.167,0 6.25,-2.083 6.25,-6.25c0,-4.167 -2.083,-6.25 -6.25,-6.25c-4.167,0 -6.25,-2.083 -6.25,-6.25c0,-4.167 2.083,-6.25 6.25,-6.25c4.167,0 6.25,-2.083 6.25,-6.25c0,-5.208 -2.083,-6.25 -12.5,-6.25c-10.417,0 -12.5,-1.042 -12.5,-6.25c0,-4.167 2.083,-6.25 6.25,-6.25c4.167,0 6.25,-2.083 6.25,-6.25c0,-4.167 -2.083,-6.25 -6.25,-6.25c-4.167,0 -6.25,-2.083 -6.25,-6.25c0,-4.167 -2.083,-6.25 -6.25,-6.25c-4.167,0 -6.25,2.083 -6.25,6.25c0,4.167 -2.083,6.25 -6.25,6.25c-4.167,0 -6.25,2.083 -6.25,6.25c0,4.167 2.083,6.25 6.25,6.25c4.167,0 6.25,2.083 6.25,6.25c0,5.208 -2.083,6.25 -12.5,6.25l-12.5,0l0,12.5c0,10.417 1.042,12.5 6.25,12.5c4.167,0 6.25,-2.083 6.25,-6.25c0,-5.208 2.083,-6.25 12.5,-6.25l12.5,0l0,50l-12.5,0c-10.417,0 -12.5,-1.042 -12.5,-6.25c0,-4.167 -2.083,-6.25 -6.25,-6.25c-4.167,0 -6.25,2.083 -6.25,6.25c0,4.167 -2.083,6.25 -6.25,6.25c-4.167,0 -6.25,-2.083 -6.25,-6.25Zm37.5,-12.5c0,-4.167 -2.083,-6.25 -6.25,-6.25c-4.167,0 -6.25,2.083 -6.25,6.25c0,4.167 2.083,6.25 6.25,6.25c4.167,0 6.25,-2.083 6.25,-6.25Zm150,0c0,-4.167 -2.083,-6.25 -6.25,-6.25c-4.167,0 -6.25,-2.083 -6.25,-6.25c0,-5.555 2.083,-6.25 18.75,-6.25c16.667,0 18.75,-0.694 18.75,-6.25c0,-5.833 -2.083,-6.25 -31.25,-6.25c-29.167,0 -31.25,-0.417 -31.25,-6.25c0,-5.208 -2.083,-6.25 -12.5,-6.25c-10.417,0 -12.5,-1.042 -12.5,-6.25c0,-4.167 2.083,-6.25 6.25,-6.25c4.167,0 6.25,-2.083 6.25,-6.25c0,-4.167 2.083,-6.25 6.25,-6.25c5.729,0 6.25,-2.083 6.25,-25c0,-22.917 -0.521,-25 -6.25,-25c-5.729,0 -6.25,2.083 -6.25,25c0,22.917 -0.521,25 -6.25,25c-4.167,0 -6.25,2.083 -6.25,6.25c0,4.167 -2.083,6.25 -6.25,6.25c-4.167,0 -6.25,2.083 -6.25,6.25c0,4.167 -2.083,6.25 -6.25,6.25c-4.167,0 -6.25,-2.083 -6.25,-6.25c0,-5.208 -2.083,-6.25 -12.5,-6.25c-10.417,0 -12.5,1.042 -12.5,6.25c0,4.167 2.083,6.25 6.25,6.25c4.167,0 6.25,2.083 6.25,6.25c0,4.167 -2.083,6.25 -6.25,6.25c-4.167,0 -6.25,2.083 -6.25,6.25c0,5.556 2.083,6.25 18.75,6.25l18.75,0l0,-12.5c0,-10.417 1.042,-12.5 6.25,-12.5c4.167,0 6.25,2.083 6.25,6.25c0,4.167 2.083,6.25 6.25,6.25c4.167,0 6.25,2.083 6.25,6.25c0,4.167 2.083,6.25 6.25,6.25c4.167,0 6.25,2.083 6.25,6.25c0,5.208 2.083,6.25 12.5,6.25c10.417,0 12.5,1.042 12.5,6.25c0,4.167 2.083,6.25 6.25,6.25c4.167,0 6.25,-2.083 6.25,-6.25Zm25,0c0,-4.167 -2.083,-6.25 -6.25,-6.25c-4.167,0 -6.25,2.083 -6.25,6.25c0,4.167 2.083,6.25 6.25,6.25c4.167,0 6.25,-2.083 6.25,-6.25Zm25,0c0,-4.167 -2.083,-6.25 -6.25,-6.25c-4.167,0 -6.25,2.083 -6.25,6.25c0,4.167 2.083,6.25 6.25,6.25c4.167,0 6.25,-2.083 6.25,-6.25Zm-37.5,-43.75l0,-37.5l-37.5,0l0,37.5l37.5,0Zm-25,-18.75c0,-4.167 2.083,-6.25 6.25,-6.25c4.167,0 6.25,2.083 6.25,6.25c0,4.167 -2.083,6.25 -6.25,6.25c-4.167,0 -6.25,-2.083 -6.25,-6.25Zm-150,-12.5c0,-4.167 -2.083,-6.25 -6.25,-6.25c-4.167,0 -6.25,2.083 -6.25,6.25c0,4.167 2.083,6.25 6.25,6.25c4.167,0 6.25,-2.083 6.25,-6.25Zm75,0c0,-4.167 2.083,-6.25 6.25,-6.25c4.167,0 6.25,-2.083 6.25,-6.25c0,-4.167 2.083,-6.25 6.25,-6.25c4.167,0 6.25,-2.083 6.25,-6.25c0,-4.167 -2.083,-6.25 -6.25,-6.25c-4.167,0 -6.25,2.083 -6.25,6.25c0,5.556 -2.083,6.25 -18.75,6.25c-16.667,0 -18.75,-0.694 -18.75,-6.25c0,-4.167 2.083,-6.25 6.25,-6.25c4.167,0 6.25,-2.083 6.25,-6.25c0,-4.167 2.083,-6.25 6.25,-6.25c4.167,0 6.25,-2.083 6.25,-6.25c0,-4.167 2.083,-6.25 6.25,-6.25c4.167,0 6.25,2.083 6.25,6.25c0,4.167 2.083,6.25 6.25,6.25c4.167,0 6.25,-2.083 6.25,-6.25c0,-4.167 2.083,-6.25 6.25,-6.25c4.167,0 6.25,-2.083 6.25,-6.25c0,-4.167 2.083,-6.25 6.25,-6.25c4.167,0 6.25,2.083 6.25,6.25c0,5.556 2.083,6.25 18.75,6.25c16.667,0 18.75,-0.694 18.75,-6.25c0,-4.167 2.083,-6.25 6.25,-6.25c4.167,0 6.25,2.083 6.25,6.25c0,4.167 2.083,6.25 6.25,6.25c5.729,0 6.25,2.083 6.25,25c0,22.917 0.521,25 6.25,25c4.167,0 6.25,-2.083 6.25,-6.25c0,-4.167 2.083,-6.25 6.25,-6.25c4.167,0 6.25,-2.083 6.25,-6.25c0,-4.167 -2.083,-6.25 -6.25,-6.25c-5.208,0 -6.25,-2.083 -6.25,-12.5c0,-10.417 -1.042,-12.5 -6.25,-12.5c-4.167,0 -6.25,-2.083 -6.25,-6.25c0,-5.208 2.083,-6.25 12.5,-6.25c10.417,0 12.5,-1.042 12.5,-6.25c0,-5.208 -2.083,-6.25 -12.5,-6.25c-10.417,0 -12.5,-1.042 -12.5,-6.25c0,-5.555 -2.083,-6.25 -18.75,-6.25c-16.667,0 -18.75,0.695 -18.75,6.25c0,5.208 -2.083,6.25 -12.5,6.25c-10.417,0 -12.5,-1.042 -12.5,-6.25c0,-4.167 -2.083,-6.25 -6.25,-6.25c-5.208,0 -6.25,-2.083 -6.25,-12.5c0,-10.417 -1.042,-12.5 -6.25,-12.5c-5.208,0 -6.25,-2.083 -6.25,-12.5c0,-10.417 -1.042,-12.5 -6.25,-12.5c-4.167,0 -6.25,2.083 -6.25,6.25c0,5.208 -2.083,6.25 -12.5,6.25c-10.417,0 -12.5,1.042 -12.5,6.25c0,4.167 -2.083,6.25 -6.25,6.25c-4.167,0 -6.25,-2.083 -6.25,-6.25c0,-4.167 -2.083,-6.25 -6.25,-6.25c-5.208,0 -6.25,2.083 -6.25,12.5c0,10.417 -1.042,12.5 -6.25,12.5c-5.556,0 -6.25,-2.083 -6.25,-18.75c0,-16.667 0.695,-18.75 6.25,-18.75c4.167,0 6.25,-2.083 6.25,-6.25c0,-5.208 -2.083,-6.25 -12.5,-6.25l-12.5,0l0,-12.5c0,-10.417 1.042,-12.5 6.25,-12.5c4.167,0 6.25,2.083 6.25,6.25c0,5.208 2.083,6.25 12.5,6.25l12.5,0l0,25l12.5,0c10.417,0 12.5,-1.042 12.5,-6.25c0,-4.167 2.083,-6.25 6.25,-6.25c4.167,0 6.25,-2.083 6.25,-6.25c0,-4.167 -2.083,-6.25 -6.25,-6.25c-4.167,0 -6.25,2.083 -6.25,6.25c0,4.167 -2.083,6.25 -6.25,6.25c-5.208,0 -6.25,-2.083 -6.25,-12.5c0,-10.417 1.042,-12.5 6.25,-12.5c4.167,0 6.25,-2.083 6.25,-6.25c0,-4.167 -2.083,-6.25 -6.25,-6.25c-4.167,0 -6.25,2.083 -6.25,6.25c0,4.167 -2.083,6.25 -6.25,6.25c-4.167,0 -6.25,-2.083 -6.25,-6.25c0,-4.167 -2.083,-6.25 -6.25,-6.25c-4.167,0 -6.25,2.083 -6.25,6.25c0,4.167 -2.083,6.25 -6.25,6.25c-4.167,0 -6.25,-2.083 -6.25,-6.25c0,-4.167 -2.083,-6.25 -6.25,-6.25c-4.167,0 -6.25,2.083 -6.25,6.25c0,4.167 -2.083,6.25 -6.25,6.25c-5.555,0 -6.25,2.083 -6.25,18.75c0,16.667 -0.694,18.75 -6.25,18.75c-4.167,0 -6.25,2.083 -6.25,6.25c0,4.167 -2.083,6.25 -6.25,6.25c-4.167,0 -6.25,-2.083 -6.25,-6.25c0,-4.167 -2.083,-6.25 -6.25,-6.25c-4.167,0 -6.25,-2.083 -6.25,-6.25c0,-5.208 -2.083,-6.25 -12.5,-6.25c-10.417,0 -12.5,1.042 -12.5,6.25c0,5.208 2.083,6.25 12.5,6.25c10.417,0 12.5,1.042 12.5,6.25c0,4.167 -2.083,6.25 -6.25,6.25c-4.167,0 -6.25,2.083 -6.25,6.25c0,5.208 2.083,6.25 12.5,6.25c10.417,0 12.5,1.042 12.5,6.25c0,5.208 -2.083,6.25 -12.5,6.25c-10.417,0 -12.5,1.042 -12.5,6.25c0,4.167 -2.083,6.25 -6.25,6.25c-5.208,0 -6.25,-2.083 -6.25,-12.5c0,-10.417 -1.042,-12.5 -6.25,-12.5c-4.167,0 -6.25,2.083 -6.25,6.25c0,5.208 -2.083,6.25 -12.5,6.25c-10.417,0 -12.5,1.042 -12.5,6.25c0,4.167 -2.083,6.25 -6.25,6.25c-4.167,0 -6.25,2.083 -6.25,6.25c0,4.167 2.083,6.25 6.25,6.25c4.167,0 6.25,2.083 6.25,6.25c0,4.167 2.083,6.25 6.25,6.25c4.167,0 6.25,2.083 6.25,6.25c0,4.167 -2.083,6.25 -6.25,6.25c-4.167,0 -6.25,2.083 -6.25,6.25c0,4.167 2.083,6.25 6.25,6.25c4.167,0 6.25,-2.083 6.25,-6.25c0,-4.167 2.083,-6.25 6.25,-6.25c5.208,0 6.25,2.083 6.25,12.5c0,10.417 1.042,12.5 6.25,12.5c5.208,0 6.25,-2.083 6.25,-12.5c0,-10.417 -1.042,-12.5 -6.25,-12.5c-4.167,0 -6.25,-2.083 -6.25,-6.25c0,-5.555 2.083,-6.25 18.75,-6.25c16.667,0 18.75,0.695 18.75,6.25c0,4.167 -2.083,6.25 -6.25,6.25c-4.167,0 -6.25,2.083 -6.25,6.25c0,4.167 2.083,6.25 6.25,6.25c4.167,0 6.25,2.083 6.25,6.25c0,4.167 -2.083,6.25 -6.25,6.25c-4.167,0 -6.25,2.083 -6.25,6.25c0,4.167 2.083,6.25 6.25,6.25c4.167,0 6.25,-2.083 6.25,-6.25c0,-4.167 2.083,-6.25 6.25,-6.25c4.167,0 6.25,2.083 6.25,6.25c0,5.208 2.083,6.25 12.5,6.25c10.417,0 12.5,-1.042 12.5,-6.25c0,-4.167 2.083,-6.25 6.25,-6.25c4.167,0 6.25,2.083 6.25,6.25c0,4.167 2.083,6.25 6.25,6.25c5.208,0 6.25,-2.083 6.25,-12.5c0,-10.417 1.042,-12.5 6.25,-12.5c5.556,0 6.25,2.083 6.25,18.75l0,18.75l12.5,0c10.417,0 12.5,1.042 12.5,6.25c0,4.167 2.083,6.25 6.25,6.25c4.167,0 6.25,-2.083 6.25,-6.25Zm-100,-37.5c0,-4.167 -2.083,-6.25 -6.25,-6.25c-4.167,0 -6.25,-2.083 -6.25,-6.25c0,-4.167 2.083,-6.25 6.25,-6.25c4.167,0 6.25,2.083 6.25,6.25c0,4.167 2.083,6.25 6.25,6.25c4.167,0 6.25,2.083 6.25,6.25c0,4.167 -2.083,6.25 -6.25,6.25c-4.167,0 -6.25,-2.083 -6.25,-6.25Zm25,-12.5c0,-4.167 -2.083,-6.25 -6.25,-6.25c-4.167,0 -6.25,-2.083 -6.25,-6.25c0,-4.167 -2.083,-6.25 -6.25,-6.25c-5.208,0 -6.25,-2.083 -6.25,-12.5l0,-12.5l12.5,0c10.417,0 12.5,-1.042 12.5,-6.25c0,-4.167 2.083,-6.25 6.25,-6.25c4.167,0 6.25,2.083 6.25,6.25c0,5.208 2.083,6.25 12.5,6.25c10.417,0 12.5,-1.042 12.5,-6.25c0,-4.167 2.083,-6.25 6.25,-6.25c4.167,0 6.25,2.083 6.25,6.25c0,5.208 2.083,6.25 12.5,6.25c10.417,0 12.5,-1.042 12.5,-6.25c0,-4.167 2.083,-6.25 6.25,-6.25c4.167,0 6.25,-2.083 6.25,-6.25c0,-4.167 2.083,-6.25 6.25,-6.25c4.167,0 6.25,2.083 6.25,6.25c0,4.167 -2.083,6.25 -6.25,6.25c-5.555,0 -6.25,2.083 -6.25,18.75c0,16.667 0.695,18.75 6.25,18.75c4.167,0 6.25,2.083 6.25,6.25c0,4.167 -2.083,6.25 -6.25,6.25c-4.167,0 -6.25,-2.083 -6.25,-6.25c0,-4.167 -2.083,-6.25 -6.25,-6.25c-4.167,0 -6.25,-2.083 -6.25,-6.25c0,-5.208 -2.083,-6.25 -12.5,-6.25c-10.417,0 -12.5,1.042 -12.5,6.25c0,4.167 2.083,6.25 6.25,6.25c4.167,0 6.25,2.083 6.25,6.25c0,4.167 -2.083,6.25 -6.25,6.25c-4.167,0 -6.25,-2.083 -6.25,-6.25c0,-5.208 -2.083,-6.25 -12.5,-6.25l-12.5,0l0,25l-12.5,0c-10.417,0 -12.5,-1.042 -12.5,-6.25Zm12.5,-31.25c0,-10.417 -1.042,-12.5 -6.25,-12.5c-4.167,0 -6.25,2.083 -6.25,6.25c0,4.167 -2.083,6.25 -6.25,6.25c-4.167,0 -6.25,2.083 -6.25,6.25c0,5.208 2.083,6.25 12.5,6.25l12.5,0l0,-12.5Zm-100,0c0,-10.417 1.042,-12.5 6.25,-12.5c5.208,0 6.25,2.083 6.25,12.5c0,10.417 -1.042,12.5 -6.25,12.5c-5.208,0 -6.25,-2.083 -6.25,-12.5Zm237.5,6.25c0,-4.167 2.083,-6.25 6.25,-6.25c4.167,0 6.25,2.083 6.25,6.25c0,4.167 -2.083,6.25 -6.25,6.25c-4.167,0 -6.25,-2.083 -6.25,-6.25Zm25,0c0,-4.167 2.083,-6.25 6.25,-6.25c4.167,0 6.25,2.083 6.25,6.25c0,4.167 -2.083,6.25 -6.25,6.25c-4.167,0 -6.25,-2.083 -6.25,-6.25Zm-225,-12.5c0,-4.167 2.083,-6.25 6.25,-6.25c4.167,0 6.25,2.083 6.25,6.25c0,4.167 -2.083,6.25 -6.25,6.25c-4.167,0 -6.25,-2.083 -6.25,-6.25Zm37.5,-37.5c0,-5.208 2.083,-6.25 12.5,-6.25c10.417,0 12.5,1.042 12.5,6.25c0,5.208 -2.083,6.25 -12.5,6.25c-10.417,0 -12.5,-1.042 -12.5,-6.25Zm162.5,93.75c0,-10.417 -1.042,-12.5 -6.25,-12.5c-5.208,0 -6.25,2.083 -6.25,12.5c0,10.417 1.042,12.5 6.25,12.5c5.208,0 6.25,-2.083 6.25,-12.5Zm25,6.25c0,-4.167 -2.083,-6.25 -6.25,-6.25c-4.167,0 -6.25,2.083 -6.25,6.25c0,4.167 2.083,6.25 6.25,6.25c4.167,0 6.25,-2.083 6.25,-6.25Zm12.5,-87.5c0,-4.167 -2.083,-6.25 -6.25,-6.25c-4.167,0 -6.25,-2.083 -6.25,-6.25c0,-4.167 -2.083,-6.25 -6.25,-6.25c-4.167,0 -6.25,-2.083 -6.25,-6.25c0,-4.167 -2.083,-6.25 -6.25,-6.25c-4.167,0 -6.25,2.083 -6.25,6.25c0,4.167 -2.083,6.25 -6.25,6.25c-4.167,0 -6.25,2.083 -6.25,6.25c0,4.167 -2.083,6.25 -6.25,6.25c-4.167,0 -6.25,2.083 -6.25,6.25c0,5.833 2.083,6.25 31.25,6.25c29.167,0 31.25,-0.417 31.25,-6.25Zm-37.5,-12.5c0,-4.167 2.083,-6.25 6.25,-6.25c4.167,0 6.25,2.083 6.25,6.25c0,4.167 -2.083,6.25 -6.25,6.25c-4.167,0 -6.25,-2.083 -6.25,-6.25Zm-37.5,-37.5c0,-4.167 -2.083,-6.25 -6.25,-6.25c-4.167,0 -6.25,2.083 -6.25,6.25c0,4.167 2.083,6.25 6.25,6.25c4.167,0 6.25,-2.083 6.25,-6.25Zm-37.5,-50c0,-5.208 -2.083,-6.25 -12.5,-6.25c-10.417,0 -12.5,1.042 -12.5,6.25c0,5.208 2.083,6.25 12.5,6.25c10.417,0 12.5,-1.042 12.5,-6.25Zm50,-37.5c0,-4.167 -2.083,-6.25 -6.25,-6.25c-4.167,0 -6.25,2.083 -6.25,6.25c0,4.167 2.083,6.25 6.25,6.25c4.167,0 6.25,-2.083 6.25,-6.25Zm100,275c0,-4.167 2.083,-6.25 6.25,-6.25c4.167,0 6.25,2.083 6.25,6.25c0,4.167 -2.083,6.25 -6.25,6.25c-4.167,0 -6.25,-2.083 -6.25,-6.25Zm0,-75c0,-4.167 2.083,-6.25 6.25,-6.25c4.167,0 6.25,2.083 6.25,6.25c0,4.167 -2.083,6.25 -6.25,6.25c-4.167,0 -6.25,-2.083 -6.25,-6.25Zm0,-50c0,-4.167 2.083,-6.25 6.25,-6.25c4.167,0 6.25,2.083 6.25,6.25c0,4.167 -2.083,6.25 -6.25,6.25c-4.167,0 -6.25,-2.083 -6.25,-6.25Zm0,-50c0,-4.167 2.083,-6.25 6.25,-6.25c4.167,0 6.25,2.083 6.25,6.25c0,4.167 -2.083,6.25 -6.25,6.25c-4.167,0 -6.25,-2.083 -6.25,-6.25Zm-350,-31.25l0,-87.5l87.5,0l0,87.5l-87.5,0Zm75,-12.5l0,-62.5l-62.5,0l0,62.5l62.5,0Zm-50,-12.5l0,-37.5l37.5,0l0,37.5l-37.5,0Zm250,25l0,-87.5l87.5,0l0,87.5l-87.5,0Zm75,-12.5l0,-62.5l-62.5,0l0,62.5l62.5,0Zm-50,-12.5l0,-37.5l37.5,0l0,37.5l-37.5,0Zm-62.5,-6.25c0,-5.208 2.083,-6.25 12.5,-6.25c10.417,0 12.5,1.042 12.5,6.25c0,5.208 -2.083,6.25 -12.5,6.25c-10.417,0 -12.5,-1.042 -12.5,-6.25Z" style="fill-rule:nonzero;"/></svg>