<?xml version="1.0" encoding="UTF-8" standalone="no"?><!DOCTYPE svg PUBLIC "-//W3C//DTD SVG 1.1//EN" "http://www.w3.org/Graphics/SVG/1.1/DTD/svg11.dtd"><svg width="100%" height="100%" viewBox="0 0 100 100" version="1.1" xmlns="http://www.w3.org/2000/svg" xmlns:xlink="http://www.w3.org/1999/xlink" xml:space="preserve" xmlns:serif="http://www.serif.com/" style="fill-rule:evenodd;clip-rule:evenodd;stroke-linecap:round;stroke-linejoin:round;"><path d="M12.5,62.5c10.345,0 18.103,-12.5 18.103,-12.5c0,0 7.759,12.5 18.104,12.5c10.345,0 20.69,-12.5 20.69,-12.5c-0,0 10.344,12.5 18.103,12.5" style="fill:none;fill-rule:nonzero;stroke:#ffb86c;stroke-width:6.25px;"/><path d="M12.5,83.333c10.345,0 18.103,-12.5 18.103,-12.5c0,0 7.759,12.5 18.104,12.5c10.345,0 20.69,-12.5 20.69,-12.5c-0,0 10.344,12.5 18.103,12.5" style="fill:none;fill-rule:nonzero;stroke:#ffb86c;stroke-width:6.25px;"/><path d="M79.167,41.667c-0,-16.109 -13.059,-29.167 -29.167,-29.167c-16.108,0 -29.167,13.058 -29.167,29.167" style="fill:none;fill-rule:nonzero;stroke:#ffb86c;stroke-width:6.25px;"/></svg>