<?xml version="1.0" encoding="UTF-8" standalone="no"?><!DOCTYPE svg PUBLIC "-//W3C//DTD SVG 1.1//EN" "http://www.w3.org/Graphics/SVG/1.1/DTD/svg11.dtd"><svg width="100%" height="100%" viewBox="0 0 8652 8647" version="1.1" xmlns="http://www.w3.org/2000/svg" xmlns:xlink="http://www.w3.org/1999/xlink" xml:space="preserve" xmlns:serif="http://www.serif.com/" style="fill-rule:evenodd;clip-rule:evenodd;stroke-linejoin:round;stroke-miterlimit:2;"><clipPath id="_clip1"><path d="M8622.68,-26.348l57.558,8646.15l-8646.15,57.558l-57.558,-8646.15l8646.15,-57.558Z" clip-rule="nonzero"/></clipPath><g clip-path="url(#_clip1)"><path d="M8651.46,4296.73l-927.183,644.407l643.189,925.924l-1098.34,267.397l263.829,1094.76l-1121.16,-145.715l-151.155,1115.75l-992.55,-539.165l-545.733,986.069l-729.912,-859.794l-866.607,723.201l-368.685,-1064.31l-1070.43,362.674l42.35,-1125.07l-1129.7,-46.859l447.641,-1033.89l-1036.39,-450.042l792.485,-803.081l-803.107,-792.458l1030.31,-463.801l-461.367,-1027.84l1128.97,-61.895l-57.324,-1124.4l1075.16,348.375l354.484,-1069.12l876.158,711.598l718.4,-869.436l558.812,978.712l985.285,-552.335l165.996,1113.64l1119.12,-160.629l-249.23,1098.17l1101.8,252.751l-630.805,934.404l935.68,632.007Z" style="fill:#44475a;fill-rule:nonzero;"/></g></svg>